<svg width="20" height="24" viewBox="0 0 20 24" fill="none" xmlns="http://www.w3.org/2000/svg">
<path fill-rule="evenodd" clip-rule="evenodd" d="M14.7522 0.762309C14.7505 0.674965 14.7489 0.587483 14.7489 0.5C11.9651 0.736023 9.80197 3.30899 10.0507 5.92414C10.351 5.9949 10.8484 5.93682 11.2483 5.79852C12.9738 5.20086 14.602 3.39589 14.7462 1.32539C14.7592 1.13928 14.7557 0.951116 14.7522 0.762309ZM6.27069 23.5033H6.85818C7.26983 23.4392 7.67359 23.3304 8.06254 23.1787C8.15854 23.1418 8.25413 23.1038 8.34966 23.0658C8.57655 22.9757 8.80312 22.8857 9.03417 22.8099C10.0465 22.4776 11.0558 22.5174 12.0559 22.8708C12.2163 22.9275 12.3754 22.9887 12.5344 23.0499C12.8076 23.1549 13.0807 23.2599 13.3602 23.3424C14.0979 23.5602 14.8352 23.5498 15.5294 23.173C15.7793 23.0329 16.0141 22.8663 16.2298 22.676C17.1829 21.8552 17.8938 20.839 18.4813 19.7257C18.8521 19.0227 19.1648 18.293 19.4491 17.5501C19.4584 17.5262 19.4695 17.503 19.4807 17.4798C19.4859 17.469 19.4911 17.4582 19.4961 17.4473V17.3551C18.9562 17.148 18.4619 16.8339 18.0416 16.4309C16.8418 15.2916 16.278 13.8766 16.3921 12.2129C16.4904 10.7735 17.157 9.62033 18.2529 8.72003C18.3561 8.6359 18.4612 8.55592 18.5692 8.47802C18.6403 8.42675 18.7126 8.37928 18.793 8.32654C18.8348 8.29913 18.8787 8.2703 18.9258 8.23877C18.8566 8.15971 18.7893 8.08005 18.7224 8.00084C18.5797 7.83201 18.4387 7.66525 18.2859 7.51088C17.4304 6.64746 16.3751 6.21621 15.2033 6.01799C14.1958 5.84742 13.2393 6.03182 12.2902 6.3545C11.6239 6.58062 10.9544 6.79682 10.2792 6.9902C10.1219 7.03514 9.92558 6.99873 9.76221 6.94871C9.32737 6.81571 8.89878 6.66096 8.47054 6.50633L8.43944 6.4951C7.86844 6.28882 7.28999 6.11549 6.68758 6.03182C6.2865 5.97604 5.8922 6.02744 5.49903 6.09428C4.68129 6.23396 3.91867 6.52184 3.22656 6.9932C2.30962 7.61759 1.65207 8.46373 1.19631 9.47927C0.784386 10.3962 0.57334 11.3654 0.515268 12.3687C0.405904 14.2608 0.769475 16.0683 1.47537 17.8104C2.11145 19.3805 2.99631 20.7922 4.10102 22.0622C4.42505 22.4335 4.75947 22.7887 5.17071 23.0614C5.49609 23.2774 5.8434 23.4327 6.23114 23.4848C6.24516 23.4889 6.25849 23.4951 6.27069 23.5033Z" fill="black"/>
</svg>
