<svg width="21" height="21" viewBox="0 0 21 21" fill="none" xmlns="http://www.w3.org/2000/svg">
<path d="M13.25 5.087C13.25 4.732 13.436 4.411 13.651 4.128C13.872 3.838 14 3.494 14 3.125C14 2.089 12.993 1.25 11.75 1.25C10.507 1.25 9.5 2.09 9.5 3.125C9.5 3.494 9.628 3.838 9.849 4.128C10.064 4.411 10.25 4.732 10.25 5.087C10.2504 5.17275 10.2336 5.25771 10.2006 5.33684C10.1675 5.41596 10.1189 5.48764 10.0577 5.54762C9.99637 5.6076 9.92366 5.65465 9.84384 5.68598C9.76402 5.71731 9.67872 5.73228 9.593 5.73C8.20166 5.68992 6.81271 5.58983 5.43 5.43C5.616 7.043 5.723 8.68 5.745 10.337C5.74593 10.4239 5.72958 10.5101 5.6969 10.5907C5.66422 10.6712 5.61587 10.7444 5.55465 10.8061C5.49343 10.8678 5.42056 10.9167 5.34028 10.95C5.26 10.9833 5.17391 11.0003 5.087 11C4.732 11 4.411 10.814 4.128 10.599C3.84137 10.3751 3.4887 10.2524 3.125 10.25C2.089 10.25 1.25 11.257 1.25 12.5C1.25 13.743 2.09 14.75 3.125 14.75C3.494 14.75 3.838 14.622 4.128 14.401C4.411 14.186 4.732 14 5.087 14C5.397 14 5.642 14.26 5.619 14.57C5.49461 16.2655 5.28031 17.9532 4.977 19.626C6.495 19.816 8.035 19.935 9.593 19.98C9.67872 19.9823 9.76402 19.9673 9.84384 19.936C9.92366 19.9047 9.99637 19.8576 10.0577 19.7976C10.1189 19.7376 10.1675 19.666 10.2006 19.5868C10.2336 19.5077 10.2504 19.4227 10.25 19.337C10.25 18.982 10.064 18.661 9.849 18.378C9.62511 18.0914 9.5024 17.7387 9.5 17.375C9.5 16.34 10.508 15.5 11.75 15.5C12.993 15.5 14 16.34 14 17.375C14 17.744 13.872 18.088 13.651 18.378C13.436 18.661 13.251 18.982 13.251 19.337C13.251 19.67 13.528 19.936 13.861 19.917C15.6805 19.81 17.4924 19.5997 19.288 19.287C19.5597 17.7252 19.7539 16.151 19.87 14.57C19.8752 14.4969 19.8653 14.4236 19.8409 14.3545C19.8164 14.2854 19.778 14.2222 19.7279 14.1686C19.6779 14.1151 19.6173 14.0725 19.5501 14.0435C19.4828 14.0145 19.4103 13.9997 19.337 14C18.982 14 18.661 14.186 18.378 14.401C18.088 14.622 17.744 14.75 17.375 14.75C16.34 14.75 15.5 13.743 15.5 12.5C15.5 11.257 16.34 10.25 17.375 10.25C17.745 10.25 18.088 10.378 18.378 10.599C18.661 10.814 18.982 11 19.338 11C19.4249 11.0003 19.511 10.9833 19.5913 10.95C19.6716 10.9167 19.7444 10.8678 19.8057 10.8061C19.8669 10.7444 19.9152 10.6712 19.9479 10.5907C19.9806 10.5101 19.9969 10.4239 19.996 10.337C19.972 8.54486 19.8484 6.75544 19.626 4.977C17.74 5.319 15.816 5.551 13.86 5.666C13.7813 5.67037 13.7025 5.65858 13.6285 5.63137C13.5545 5.60416 13.4869 5.56209 13.4297 5.50777C13.3726 5.45344 13.3272 5.388 13.2963 5.31546C13.2653 5.24293 13.2496 5.16584 13.25 5.087Z" stroke="black" stroke-width="1.5" stroke-linecap="round" stroke-linejoin="round"/>
</svg>
