<svg width="22" height="22" viewBox="0 0 22 22" fill="none" xmlns="http://www.w3.org/2000/svg">
<path d="M10.5248 1.79489C10.5687 1.70635 10.6364 1.63183 10.7203 1.57972C10.8042 1.52761 10.9011 1.5 10.9998 1.5C11.0986 1.5 11.1955 1.52761 11.2794 1.57972C11.3633 1.63183 11.431 1.70635 11.4748 1.79489L13.7848 6.47389C13.937 6.78186 14.1617 7.0483 14.4395 7.25035C14.7173 7.45239 15.04 7.58401 15.3798 7.63389L20.5458 8.38989C20.6437 8.40408 20.7357 8.44537 20.8113 8.50909C20.887 8.57282 20.9433 8.65644 20.9739 8.7505C21.0045 8.84456 21.0081 8.9453 20.9844 9.04133C20.9607 9.13736 20.9107 9.22485 20.8398 9.29389L17.1038 12.9319C16.8575 13.172 16.6731 13.4684 16.5667 13.7955C16.4602 14.1227 16.4349 14.4708 16.4928 14.8099L17.3748 19.9499C17.3921 20.0477 17.3816 20.1485 17.3443 20.2406C17.3071 20.3327 17.2448 20.4125 17.1644 20.4709C17.084 20.5293 16.9888 20.5639 16.8897 20.5708C16.7906 20.5777 16.6915 20.5566 16.6038 20.5099L11.9858 18.0819C11.6816 17.9221 11.343 17.8386 10.9993 17.8386C10.6557 17.8386 10.3171 17.9221 10.0128 18.0819L5.39585 20.5099C5.30818 20.5563 5.20924 20.5772 5.1103 20.5701C5.01135 20.5631 4.91636 20.5285 4.83614 20.4701C4.75592 20.4118 4.69368 20.3321 4.6565 20.2401C4.61933 20.1482 4.6087 20.0476 4.62585 19.9499L5.50685 14.8109C5.56504 14.4716 5.53983 14.1233 5.43338 13.7959C5.32694 13.4686 5.14245 13.172 4.89585 12.9319L1.15985 9.29489C1.08844 9.22593 1.03784 9.13829 1.01381 9.04197C0.989778 8.94565 0.993284 8.84451 1.02393 8.75008C1.05457 8.65566 1.11111 8.57174 1.18712 8.50788C1.26313 8.44402 1.35555 8.40279 1.45385 8.38889L6.61885 7.63389C6.9591 7.58439 7.28224 7.45295 7.56043 7.25088C7.83863 7.04881 8.06355 6.78216 8.21585 6.47389L10.5248 1.79489Z" stroke="white" stroke-width="1.5" stroke-linecap="round" stroke-linejoin="round"/>
</svg>
