<svg width="55" height="48" viewBox="0 0 55 48" fill="none" xmlns="http://www.w3.org/2000/svg">
<path d="M23.0454 1.15539C23.1527 1.15521 23.26 1.15498 23.3673 1.15469C23.6268 1.15416 23.8862 1.15423 24.1456 1.15462C24.3568 1.15492 24.5679 1.15495 24.779 1.15481C24.8093 1.15479 24.8395 1.15477 24.8706 1.15475C24.932 1.15471 24.9935 1.15466 25.0549 1.15462C25.6289 1.15425 26.2028 1.15467 26.7768 1.15539C27.2676 1.15598 27.7585 1.15587 28.2494 1.15526C28.8215 1.15456 29.3936 1.15428 29.9657 1.15469C30.0269 1.15473 30.0881 1.15477 30.1493 1.15481C30.1944 1.15484 30.1944 1.15484 30.2405 1.15487C30.451 1.15499 30.6615 1.15479 30.872 1.15448C31.1561 1.15407 31.4402 1.15437 31.7243 1.15513C31.8281 1.1553 31.9318 1.15526 32.0356 1.15496C32.7461 1.15314 33.4331 1.18406 34.1105 1.42007C34.159 1.43663 34.159 1.43663 34.2084 1.45353C35.5221 1.92383 36.6278 2.87664 37.2274 4.14079C37.6115 4.98589 37.7186 5.85368 37.726 6.77452C37.7269 6.85516 37.7277 6.9358 37.7286 7.01643C37.7299 7.14045 37.7308 7.26442 37.7309 7.38844C37.731 7.51028 37.7325 7.63204 37.7343 7.75387C37.7338 7.8089 37.7338 7.8089 37.7333 7.86504C37.7383 8.1036 37.7907 8.25007 37.9302 8.4442C38.0187 8.5741 38.0573 8.7091 38.105 8.85874C38.1319 8.94129 38.1319 8.94129 38.1593 9.02551C38.2461 9.33192 38.255 9.61985 38.2558 9.9362C38.2562 10.0095 38.2562 10.0095 38.2567 10.0842C38.2576 10.2458 38.2581 10.4073 38.2585 10.5688C38.2587 10.6243 38.2589 10.6798 38.2591 10.7369C38.2599 11.0008 38.2605 11.2646 38.2609 11.5284C38.2613 11.8306 38.2625 12.1327 38.2643 12.4349C38.2658 12.6984 38.2663 12.9619 38.2664 13.2254C38.2667 13.3364 38.2672 13.4475 38.268 13.5586C38.2746 14.5071 38.193 15.3675 37.7638 16.2259C37.7594 16.338 37.7576 16.449 37.7578 16.5611C37.7576 16.5961 37.7575 16.6311 37.7574 16.6672C37.757 16.7852 37.757 16.9032 37.7569 17.0212C37.7567 17.1056 37.7565 17.19 37.7562 17.2744C37.7557 17.4565 37.7554 17.6387 37.7551 17.8209C37.7546 18.1098 37.7537 18.3987 37.7527 18.6876C37.75 19.5093 37.7476 20.3309 37.7462 21.1526C37.7454 21.6061 37.7441 22.0595 37.7423 22.513C37.7414 22.7526 37.7407 22.9923 37.7406 23.232C37.7405 23.4582 37.7398 23.6845 37.7386 23.9108C37.7383 23.9931 37.7382 24.0754 37.7384 24.1577C37.7401 25.2687 37.5619 26.2794 37.0596 27.2738C37.0986 27.2783 37.1376 27.2827 37.1777 27.2872C37.37 27.3276 37.4953 27.4203 37.6554 27.53C37.7896 27.5943 37.8447 27.5855 37.9839 27.5379C38.0696 27.4914 38.0696 27.4914 38.149 27.4334C38.6287 27.1214 39.1605 27.1352 39.7139 27.1354C39.7773 27.1353 39.8407 27.1351 39.904 27.1349C40.0754 27.1346 40.2467 27.1345 40.4181 27.1344C40.5254 27.1344 40.6327 27.1343 40.74 27.1342C41.115 27.1338 41.4901 27.1336 41.8651 27.1336C42.2135 27.1337 42.562 27.1332 42.9104 27.1325C43.2105 27.1319 43.5106 27.1317 43.8107 27.1317C43.9895 27.1317 44.1683 27.1316 44.3471 27.1311C44.5155 27.1307 44.6839 27.1307 44.8522 27.131C44.9136 27.1311 44.975 27.131 45.0364 27.1307C45.994 27.1268 45.994 27.1268 46.3717 27.3454C46.5246 27.434 46.5246 27.434 46.6991 27.4499C46.8117 27.3993 46.9207 27.3431 47.0304 27.2866C47.5172 27.1058 48.0355 27.1281 48.5473 27.1303C48.6766 27.1308 48.8059 27.1303 48.9352 27.1298C49.7452 27.129 50.4939 27.1678 51.1149 27.7635C51.5608 28.2624 51.6335 28.7776 51.6276 29.4332C51.6015 29.8826 51.4101 30.2461 51.1667 30.6163C51.1198 30.689 51.0729 30.7617 51.026 30.8345C51.0021 30.8714 50.9781 30.9083 50.9534 30.9463C50.8339 31.1314 50.7171 31.3182 50.6 31.5049C50.5584 31.571 50.5168 31.6372 50.4751 31.7033C50.4555 31.7348 50.4358 31.7663 50.4155 31.7987C50.3708 31.8673 50.3237 31.9343 50.2751 32.0002C50.2501 32.0345 50.2251 32.0688 50.1993 32.1042C50.176 32.1349 50.1527 32.1656 50.1287 32.1972C50.0761 32.293 50.0761 32.293 50.1192 32.4043C50.1994 32.5552 50.2984 32.6906 50.3991 32.8281C50.6222 33.1394 50.8392 33.4545 51.0508 33.7737C51.0995 33.847 51.1487 33.9199 51.198 33.9928C51.6262 34.6422 51.7803 35.2998 51.6428 36.0693C51.4893 36.6072 51.1877 37.005 50.7107 37.2989C50.2688 37.5353 49.8322 37.5872 49.3364 37.5868C49.2693 37.587 49.2693 37.5871 49.2008 37.5873C49.1068 37.5876 49.0128 37.5876 48.9188 37.5874C48.7769 37.5873 48.6349 37.5883 48.493 37.5894C47.8775 37.5914 47.3182 37.5893 46.7787 37.2606C46.6969 37.2106 46.6969 37.2106 46.589 37.2407C46.5527 37.2634 46.5164 37.286 46.479 37.3094C46.418 37.3398 46.3565 37.3691 46.2947 37.3975C46.265 37.412 46.2353 37.4265 46.2047 37.4415C45.8747 37.5607 45.5447 37.5858 45.1967 37.5806C45.1531 37.5803 45.1095 37.5801 45.0645 37.5798C44.9687 37.5793 44.8728 37.5786 44.777 37.5777C44.5074 37.5752 44.2379 37.5744 43.9684 37.5737C43.9388 37.5736 43.9092 37.5735 43.8787 37.5734C42.9925 37.571 42.1064 37.5831 41.2203 37.5939C41.0866 37.5955 40.953 37.5972 40.8194 37.5988C40.3144 37.6048 39.8094 37.6111 39.3044 37.6175C39.3258 37.6478 39.3472 37.678 39.3693 37.7091C39.4112 37.7686 39.4112 37.7686 39.454 37.8293C39.4817 37.8686 39.5095 37.9079 39.5381 37.9484C39.8607 38.4223 40.0294 39.116 40.0527 39.6863C40.0549 39.7296 40.0572 39.773 40.0595 39.8176C40.0878 40.8398 39.8149 41.8761 39.1146 42.6436C39.0324 42.7303 38.9486 42.8148 38.8642 42.8994C38.8127 42.9525 38.8127 42.9525 38.76 43.0067C38.2685 43.4834 37.4524 43.9558 36.7515 43.9558C36.7535 44.0074 36.7556 44.059 36.7577 44.1121C36.7766 44.7872 36.6472 45.2631 36.1764 45.7704C35.718 46.2083 35.1594 46.3471 34.5402 46.3441C34.5017 46.3443 34.4633 46.3445 34.4237 46.3447C34.2962 46.3451 34.1688 46.3449 34.0413 46.3448C33.9493 46.345 33.8574 46.3452 33.7655 46.3454C33.5166 46.346 33.2678 46.3461 33.019 46.3459C32.8109 46.3459 32.6027 46.3461 32.3946 46.3463C31.9033 46.3468 31.412 46.3468 30.9207 46.3466C30.4148 46.3463 29.909 46.3468 29.4031 46.3478C28.9679 46.3486 28.5327 46.3488 28.0975 46.3487C27.838 46.3486 27.5785 46.3487 27.3189 46.3493C27.0747 46.3499 26.8306 46.3498 26.5864 46.3492C26.4971 46.3491 26.4078 46.3492 26.3186 46.3496C25.8863 46.3512 25.4864 46.349 25.0689 46.2257C24.9175 46.1923 24.8018 46.2143 24.6557 46.2605C24.3812 46.3406 24.101 46.3402 23.8174 46.3416C23.7762 46.3419 23.735 46.3421 23.6925 46.3424C23.6056 46.3428 23.5187 46.3431 23.4317 46.3432C23.3005 46.3437 23.1692 46.345 23.038 46.3464C22.3109 46.3505 21.7 46.2944 21.1259 45.8045C20.9037 45.5612 20.7322 45.3122 20.5977 45.0122C20.5686 44.9534 20.5393 44.8947 20.5097 44.8361C20.4967 44.8761 20.4967 44.8761 20.4835 44.9169C20.2687 45.5188 19.8512 45.8997 19.2972 46.1876C18.8222 46.3659 18.3263 46.3477 17.826 46.3466C17.6959 46.3464 17.5657 46.3475 17.4355 46.3486C16.698 46.3511 16.0511 46.2785 15.4974 45.7412C15.4358 45.6752 15.3752 45.6083 15.3158 45.5404C15.2936 45.5155 15.2714 45.4907 15.2486 45.4651C14.9068 45.0392 14.8945 44.5102 14.8997 43.9896C14.8997 43.9192 14.8997 43.8489 14.8996 43.7786C14.8995 43.5893 14.9006 43.4 14.9018 43.2107C14.9029 43.0122 14.903 42.8138 14.9032 42.6154C14.9038 42.2403 14.9052 41.8653 14.907 41.4902C14.909 41.0629 14.9099 40.6357 14.9108 40.2084C14.9126 39.3301 14.9157 38.4518 14.9197 37.5735C14.8863 37.5647 14.8529 37.5558 14.8186 37.5466C14.7749 37.5349 14.7312 37.5231 14.6862 37.511C14.6428 37.4994 14.5995 37.4878 14.5548 37.4759C14.4275 37.4392 14.3134 37.3931 14.1961 37.3314C14.1617 37.3137 14.1273 37.296 14.0918 37.2778C13.9953 37.2214 13.9953 37.2214 13.9009 37.1471C13.8605 37.1185 13.8605 37.1185 13.8193 37.0894C13.6713 37.1222 13.5593 37.203 13.4341 37.2847C13.0408 37.5363 12.6196 37.5803 12.1625 37.5809C12.1219 37.5811 12.0813 37.5812 12.0395 37.5814C11.9538 37.5816 11.8681 37.5817 11.7824 37.5817C11.6525 37.5818 11.5226 37.5826 11.3927 37.5834C11.3091 37.5835 11.2255 37.5836 11.1419 37.5837C11.1036 37.584 11.0653 37.5843 11.0258 37.5846C10.7919 37.5838 10.5782 37.5568 10.3504 37.5031C10.2082 37.4772 10.0863 37.5004 9.94587 37.5295C9.72184 37.5669 9.50322 37.5806 9.27652 37.5809C9.24283 37.5811 9.20914 37.5812 9.17443 37.5814C9.10352 37.5816 9.03261 37.5817 8.9617 37.5817C8.85449 37.5818 8.7473 37.5826 8.6401 37.5834C8.31809 37.5845 8.01105 37.5848 7.69703 37.5031C7.56041 37.4745 7.43995 37.5015 7.30493 37.5295C7.05918 37.5715 6.82129 37.5812 6.57282 37.5825C6.5326 37.5827 6.49239 37.583 6.45095 37.5832C6.36609 37.5836 6.28123 37.5839 6.19637 37.5841C6.06829 37.5845 5.94024 37.5859 5.81217 37.5873C5.05133 37.5916 4.36638 37.5172 3.78831 36.9699C3.29218 36.4314 3.23522 35.8213 3.23839 35.1179C3.23821 35.0502 3.23797 34.9824 3.23769 34.9147C3.23709 34.7324 3.23732 34.5502 3.23774 34.368C3.23807 34.1762 3.23776 33.9845 3.23755 33.7928C3.23732 33.471 3.23763 33.1492 3.23826 32.8275C3.23898 32.4566 3.23874 32.0858 3.23802 31.715C3.23742 31.3953 3.23734 31.0756 3.23768 30.7558C3.23789 30.5654 3.23792 30.3751 3.23748 30.1847C3.23709 30.0057 3.23737 29.8267 3.23812 29.6476C3.2383 29.5824 3.23825 29.5171 3.23796 29.4518C3.23526 28.7904 3.33362 28.2273 3.79192 27.725C4.31199 27.2382 4.96912 27.1352 5.6509 27.1344C5.69409 27.1342 5.73728 27.1341 5.78178 27.134C5.87278 27.1337 5.96378 27.1336 6.05478 27.1336C6.1925 27.1335 6.33021 27.1327 6.46794 27.1319C7.20764 27.1297 7.88959 27.1384 8.48372 27.6416C8.5789 27.7363 8.6689 27.8332 8.75745 27.9341C8.80112 27.9784 8.845 28.0226 8.8895 28.0661C8.90584 28.0294 8.90584 28.0294 8.92251 27.9918C9.13156 27.6051 9.5479 27.3622 9.95963 27.2326C10.2834 27.1448 10.6119 27.1352 10.9449 27.1354C11.0068 27.1352 11.0068 27.1352 11.0698 27.1349C11.2052 27.1345 11.3406 27.1344 11.4759 27.1344C11.5708 27.1343 11.6656 27.1341 11.7604 27.134C11.959 27.1337 12.1576 27.1336 12.3562 27.1336C12.6093 27.1336 12.8625 27.133 13.1156 27.1323C13.3115 27.1318 13.5074 27.1317 13.7032 27.1317C13.7965 27.1317 13.8898 27.1315 13.983 27.1311C15.2793 27.1268 15.2793 27.1268 15.6927 27.3729C15.8141 27.4489 15.8141 27.4489 15.932 27.4939C16.0267 27.4667 16.0267 27.4667 16.1081 27.4059C16.6595 27.1213 17.2191 27.1297 17.8247 27.1418C17.8045 27.0986 17.7843 27.0554 17.7635 27.0109C17.5783 26.607 17.433 26.2136 17.3405 25.7773C17.3331 25.7438 17.3257 25.7103 17.318 25.6757C17.2334 25.2432 17.2412 24.8148 17.2433 24.3761C17.2434 24.2887 17.2435 24.2013 17.2435 24.1139C17.2436 23.9265 17.2439 23.7392 17.2445 23.5519C17.2452 23.2551 17.2451 22.9583 17.2447 22.6615C17.2439 21.8178 17.2436 20.9741 17.2457 20.1303C17.2468 19.6637 17.2469 19.197 17.2457 18.7304C17.2452 18.4839 17.2452 18.2375 17.2465 17.9911C17.2478 17.7592 17.2476 17.5272 17.2464 17.2953C17.2462 17.2107 17.2465 17.1261 17.2474 17.0415C17.2524 16.5471 17.2046 16.1643 16.9767 15.7212C16.7519 15.2627 16.7132 14.7813 16.6985 14.2782C16.6968 14.2238 16.6951 14.1695 16.6933 14.1135C16.6709 13.3458 16.6704 12.5776 16.6697 11.8096C16.6695 11.5889 16.6684 11.3682 16.6672 11.1475C16.6663 10.9745 16.6661 10.8015 16.666 10.6285C16.6659 10.5472 16.6656 10.4658 16.665 10.3844C16.6603 9.69081 16.6617 8.83935 17.127 8.27673C17.2477 8.05487 17.2252 7.85513 17.2167 7.60704C17.2151 7.50399 17.2136 7.40094 17.2123 7.29789C17.211 7.21928 17.211 7.21928 17.2098 7.13907C17.1965 5.57752 17.4552 4.19571 18.4849 2.97713C18.5213 2.93355 18.5577 2.88998 18.5951 2.84508C18.8276 2.57739 19.0652 2.37222 19.3653 2.18484C19.4092 2.15642 19.4532 2.12799 19.4985 2.0987C20.6451 1.37183 21.7119 1.15162 23.0454 1.15539Z" fill="#142A47"/>
<path d="M22.5016 3.23546C22.5454 3.23536 22.5892 3.23526 22.6344 3.23515C22.7803 3.23488 22.9263 3.23491 23.0723 3.23495C23.1773 3.23482 23.2823 3.23467 23.3873 3.2345C23.6424 3.23415 23.8975 3.23401 24.1526 3.23399C24.3602 3.23397 24.5677 3.23388 24.7752 3.23374C25.3645 3.23335 25.9538 3.23315 26.5431 3.23318C26.5748 3.23318 26.6065 3.23318 26.6392 3.23319C26.6868 3.23319 26.6868 3.23319 26.7354 3.23319C27.25 3.23321 27.7645 3.23279 28.279 3.23217C28.8082 3.23153 29.3374 3.23123 29.8667 3.23127C30.1634 3.23128 30.4602 3.23116 30.7569 3.23069C31.0361 3.23026 31.3152 3.23026 31.5944 3.23058C31.6966 3.23063 31.7988 3.23052 31.901 3.23026C33.0007 3.22757 33.9834 3.39746 34.8064 4.19284C35.0774 4.48899 35.2911 4.8012 35.4306 5.17804C35.4427 5.20856 35.4548 5.23909 35.4672 5.27054C35.6537 5.77584 35.6633 6.30567 35.6593 6.83774C35.6591 6.90206 35.659 6.96637 35.6589 7.03068C35.6585 7.19791 35.6577 7.36512 35.6567 7.53234C35.6558 7.7038 35.6554 7.87526 35.655 8.04671C35.654 8.38162 35.6525 8.71652 35.6507 9.05143C35.6854 9.06448 35.7201 9.07753 35.7558 9.09098C35.8785 9.14274 35.9305 9.18886 36.0138 9.29076C36.0358 9.31703 36.0578 9.3433 36.0805 9.37037C36.1744 9.50381 36.1845 9.62081 36.1853 9.7788C36.1858 9.84005 36.1858 9.84005 36.1863 9.90254C36.1864 9.94726 36.1865 9.99198 36.1866 10.0381C36.1869 10.0852 36.1872 10.1324 36.1875 10.181C36.1884 10.3376 36.1889 10.4942 36.1893 10.6508C36.1895 10.7043 36.1897 10.7579 36.1899 10.8131C36.1908 11.0968 36.1914 11.3806 36.1918 11.6644C36.1923 11.9566 36.1938 12.2488 36.1956 12.5409C36.1967 12.7663 36.1971 12.9917 36.1973 13.217C36.1975 13.3247 36.198 13.4323 36.1988 13.5399C36.2065 14.624 36.2065 14.624 36.0028 15.0816C35.9902 15.1103 35.9775 15.139 35.9645 15.1686C35.9337 15.2329 35.8984 15.2951 35.8625 15.3567C35.8401 15.396 35.8177 15.4352 35.7946 15.4757C35.7387 15.5658 35.7387 15.5658 35.6947 15.6098C35.6901 15.7302 35.6884 15.8495 35.6886 15.9699C35.6885 16.0081 35.6883 16.0463 35.6882 16.0857C35.6879 16.2148 35.6878 16.3439 35.6877 16.473C35.6875 16.5652 35.6873 16.6573 35.6871 16.7495C35.6866 16.9486 35.6862 17.1477 35.6859 17.3468C35.6854 17.6621 35.6845 17.9773 35.6836 18.2926C35.6808 19.1892 35.6785 20.0859 35.677 20.9826C35.6762 21.4774 35.6749 21.9721 35.6731 22.4669C35.6722 22.7286 35.6715 22.9904 35.6714 23.2521C35.6713 23.4989 35.6706 23.7456 35.6695 23.9924C35.6692 24.0825 35.6691 24.1727 35.6692 24.2628C35.671 25.5183 35.671 25.5183 35.3866 25.9535C35.3416 26.0424 35.2966 26.1314 35.2518 26.2203C34.8207 27.0184 34.1601 27.524 33.2986 27.7939C32.9966 27.8805 32.7084 27.8967 32.3963 27.8964C32.3306 27.8966 32.3306 27.8966 32.2634 27.8968C32.1166 27.8971 31.9697 27.8972 31.8228 27.8973C31.7175 27.8975 31.6121 27.8977 31.5068 27.8979C31.2206 27.8985 30.9343 27.8988 30.6481 27.899C30.4692 27.8991 30.2903 27.8993 30.1114 27.8995C29.6154 27.9 29.1194 27.9005 28.6235 27.9006C28.5918 27.9006 28.56 27.9007 28.5274 27.9007C28.4956 27.9007 28.4638 27.9007 28.431 27.9007C28.3666 27.9007 28.3022 27.9007 28.2378 27.9008C28.2058 27.9008 28.1739 27.9008 28.141 27.9008C27.6238 27.901 27.1066 27.9017 26.5894 27.9028C26.0576 27.9038 25.5259 27.9043 24.9941 27.9044C24.6958 27.9044 24.3976 27.9047 24.0993 27.9055C23.8186 27.9062 23.5378 27.9063 23.2571 27.9059C23.1543 27.9059 23.0516 27.9061 22.9488 27.9065C22.2996 27.9091 21.7017 27.9057 21.1144 27.5931C21.0847 27.5776 21.0549 27.5622 21.0243 27.5463C20.7875 27.4203 20.5757 27.2791 20.3772 27.0979C20.3257 27.0509 20.3257 27.0509 20.2732 27.003C20.0685 26.8074 19.8839 26.6073 19.761 26.3496C19.761 26.3206 19.761 26.2915 19.761 26.2616C19.7319 26.2616 19.7029 26.2616 19.6729 26.2616C19.579 26.0548 19.4875 25.847 19.4006 25.6371C19.3863 25.6029 19.3721 25.5687 19.3574 25.5334C19.2721 25.2815 19.2706 25.0325 19.2716 24.7698C19.2716 24.7309 19.2715 24.692 19.2715 24.6519C19.2714 24.5217 19.2717 24.3916 19.2719 24.2614C19.2719 24.168 19.2719 24.0746 19.2719 23.9811C19.2719 23.78 19.2719 23.5789 19.2721 23.3778C19.2722 23.0597 19.2718 22.7415 19.2713 22.4234C19.2712 22.3696 19.2711 22.3159 19.271 22.2606C19.2708 22.1507 19.2706 22.0409 19.2704 21.931C19.2692 21.1904 19.2683 20.4499 19.2691 19.7093C19.2696 19.2096 19.2692 18.7098 19.2677 18.2101C19.2669 17.9458 19.2666 17.6815 19.2675 17.4171C19.2683 17.1684 19.2679 16.9197 19.2665 16.671C19.2662 16.5799 19.2664 16.4888 19.2671 16.3977C19.2703 15.9132 19.2722 15.5679 18.9687 15.1696C18.6839 14.5914 18.717 13.9377 18.7209 13.3112C18.7209 13.2055 18.7208 13.0999 18.7206 12.9942C18.7205 12.7743 18.7211 12.5544 18.7223 12.3344C18.7238 12.0531 18.7236 11.7718 18.7227 11.4904C18.7223 11.2729 18.7227 11.0553 18.7233 10.8378C18.7235 10.734 18.7235 10.6303 18.7233 10.5265C18.723 10.3817 18.7239 10.2369 18.7251 10.0921C18.7248 10.0497 18.7245 10.0073 18.7242 9.9636C18.7284 9.66808 18.7824 9.42099 18.9915 9.20129C19.1629 9.05143 19.1629 9.05143 19.2768 9.05143C19.2764 9.01864 19.276 8.98586 19.2756 8.95208C19.272 8.63885 19.2694 8.32562 19.2677 8.01238C19.2668 7.85144 19.2655 7.69052 19.2635 7.52959C19.2546 6.80309 19.259 6.10473 19.4528 5.39812C19.467 5.34493 19.4811 5.29175 19.4957 5.23696C19.7035 4.50281 20.3121 3.95963 20.9573 3.59284C21.4764 3.3117 21.9196 3.23447 22.5016 3.23546Z" fill="white"/>
<path d="M23.1142 6.48726C23.1723 6.48706 23.1723 6.48706 23.2315 6.48685C23.3601 6.4865 23.4888 6.48677 23.6174 6.48705C23.71 6.48693 23.8027 6.48677 23.8953 6.48658C24.1462 6.48618 24.3971 6.48634 24.6481 6.48662C24.911 6.48684 25.1739 6.48663 25.4368 6.48649C25.8783 6.48633 26.3198 6.48655 26.7613 6.48696C27.2713 6.48744 27.7813 6.48729 28.2913 6.4868C28.7296 6.4864 29.1679 6.48635 29.6063 6.48658C29.8679 6.48672 30.1294 6.48673 30.391 6.48644C30.637 6.48619 30.883 6.48637 31.1289 6.48687C31.219 6.48699 31.3091 6.48696 31.3993 6.48676C31.5226 6.48652 31.6459 6.48683 31.7692 6.48726C31.8222 6.48697 31.8222 6.48697 31.8764 6.48667C32.5015 6.49095 33.0908 6.71766 33.5379 7.15868C33.9296 7.59994 34.1579 8.13077 34.1606 8.72351C34.1611 8.79476 34.1611 8.79476 34.1615 8.86746C34.1617 8.91891 34.1618 8.97036 34.1619 9.02337C34.1622 9.07809 34.1625 9.1328 34.1628 9.18917C34.1636 9.36996 34.1642 9.55075 34.1646 9.73154C34.1648 9.79401 34.1649 9.85649 34.1651 9.91897C34.166 10.2125 34.1666 10.5061 34.167 10.7997C34.1674 11.1376 34.1686 11.4755 34.1703 11.8134C34.1717 12.0752 34.1723 12.3371 34.1725 12.5989C34.1726 12.755 34.173 12.9111 34.1741 13.0672C34.1753 13.2415 34.1751 13.4158 34.1748 13.5902C34.1756 13.6668 34.1756 13.6668 34.1765 13.745C34.1727 14.3345 33.9408 14.699 33.548 15.1212C33.1931 15.4622 32.69 15.704 32.2174 15.8298C32.1881 15.8377 32.1588 15.8456 32.1286 15.8537C31.8752 15.916 31.6385 15.9286 31.3784 15.9233C31.3403 15.9229 31.3022 15.9225 31.2629 15.9221C31.1703 15.9211 31.0776 15.9195 30.985 15.9178C30.98 15.8736 30.98 15.8736 30.975 15.8286C30.8484 14.9036 30.434 14.0922 29.7085 13.497C28.8759 12.8926 27.9077 12.6354 26.891 12.7695C25.9672 12.9307 25.1453 13.395 24.5901 14.1646C24.2286 14.7302 24.0761 15.2616 23.9865 15.9178C23.0319 15.9497 22.1475 15.8034 21.4099 15.1439C21.0647 14.8094 20.8168 14.4259 20.8003 13.9385C20.7993 13.8351 20.7991 13.7316 20.7995 13.6282C20.7992 13.5715 20.7989 13.5147 20.7986 13.4563C20.7978 13.3015 20.7979 13.1467 20.7981 12.9919C20.7983 12.8622 20.798 12.7325 20.7977 12.6028C20.7971 12.2964 20.7972 11.9901 20.7977 11.6837C20.7982 11.3689 20.7976 11.0541 20.7964 10.7392C20.7954 10.4679 20.7951 10.1966 20.7954 9.92525C20.7955 9.76366 20.7954 9.60207 20.7947 9.44048C20.7939 9.25994 20.7945 9.07943 20.7952 8.89889C20.7948 8.84619 20.7944 8.79349 20.7939 8.7392C20.7995 8.10352 21.0266 7.57265 21.4555 7.10641C21.915 6.6664 22.4871 6.48378 23.1142 6.48726Z" fill="#132B48"/>
<path d="M19.9375 13.2329C19.9397 13.2823 19.9418 13.3317 19.9441 13.3827C19.9854 14.2543 20.2165 14.8987 20.8619 15.5217C20.8945 15.5533 20.9272 15.5848 20.9609 15.6173C21.3494 15.9806 21.3494 15.9806 21.8302 16.182C21.8302 16.211 21.8302 16.2401 21.8302 16.27C22.548 16.458 23.2439 16.5955 23.987 16.6221C24.0047 16.6861 24.0047 16.6861 24.0227 16.7514C24.1981 17.3606 24.4358 17.9519 24.8673 18.4268C24.9105 18.476 24.9105 18.476 24.9545 18.5262C25.4268 19.0338 26.0518 19.3171 26.716 19.4832C26.716 19.8172 26.716 20.1513 26.716 20.4955C25.6756 20.4955 24.7617 19.8629 24.031 19.175C24.0044 19.1513 23.9779 19.1276 23.9505 19.1032C23.4225 18.6122 23.0463 17.9372 22.8866 17.2383C22.8624 17.2324 22.8381 17.2264 22.8132 17.2203C22.3608 17.1032 21.9203 16.9483 21.4781 16.7982C21.7 17.8195 22.0055 18.7446 22.6665 19.5712C22.6856 19.5952 22.7046 19.6192 22.7243 19.6439C23.2424 20.2904 23.8888 20.887 24.6696 21.1987C24.757 21.2346 24.8426 21.2748 24.9275 21.3163C25.343 21.5171 25.7456 21.6173 26.2003 21.6917C26.3774 21.7207 26.5447 21.7628 26.716 21.816C26.7417 22.0569 26.7542 22.2801 26.716 22.5202C26.6195 22.6274 26.5331 22.6672 26.402 22.7257C26.0172 22.9045 25.7527 23.247 25.5716 23.6206C25.5492 23.665 25.5492 23.665 25.5263 23.7102C25.3395 24.1571 25.3908 24.7379 25.5628 25.1798C25.7442 25.5698 26.0133 25.8761 26.3198 26.1736C25.9309 26.443 25.528 26.4259 25.0753 26.4229C24.9973 26.423 24.9193 26.4232 24.8412 26.4235C24.6782 26.4238 24.5152 26.4234 24.3522 26.4223C24.1446 26.4211 23.9371 26.4218 23.7295 26.4231C23.5685 26.4239 23.4075 26.4236 23.2465 26.4231C23.17 26.4229 23.0935 26.4231 23.0171 26.4236C22.3514 26.4271 21.8377 26.3063 21.346 25.8214C20.8538 25.26 20.7856 24.6806 20.7944 23.9692C20.7946 23.8859 20.7947 23.8026 20.7947 23.7193C20.7949 23.5411 20.7958 23.3629 20.7972 23.1847C20.7993 22.9028 20.7996 22.6209 20.7996 22.339C20.7999 21.5885 20.8026 20.8379 20.8064 20.0874C20.8088 19.5933 20.8103 19.0993 20.8099 18.6052C20.8097 18.325 20.8111 18.0449 20.8138 17.7647C20.8151 17.5906 20.8149 17.4164 20.8143 17.2423C20.8143 17.1616 20.815 17.081 20.8163 17.0004C20.8369 16.5816 20.8369 16.5816 20.6981 16.201C20.6096 16.1226 20.5236 16.0652 20.4217 16.0059C20.1474 15.7687 19.944 15.4821 19.7615 15.1696C19.7615 15.1406 19.7615 15.1115 19.7615 15.0816C19.7324 15.0816 19.7034 15.0816 19.6734 15.0816C19.6299 14.9644 19.5869 14.847 19.5441 14.7294C19.5319 14.6967 19.5197 14.664 19.5071 14.6302C19.3943 14.3177 19.3588 14.0287 19.3626 13.6951C19.363 13.6492 19.3634 13.6034 19.3638 13.5562C19.3643 13.5221 19.3648 13.4881 19.3653 13.453C19.4274 13.4158 19.4898 13.3793 19.5524 13.3429C19.6045 13.3123 19.6045 13.3123 19.6576 13.2811C19.7615 13.2329 19.7615 13.2329 19.9375 13.2329Z" fill="#132A47"/>
<path d="M34.99 13.1887C35.1303 13.2433 35.2658 13.3021 35.3999 13.3703C35.4306 13.3858 35.4613 13.4014 35.493 13.4174C35.5158 13.4291 35.5387 13.4408 35.5623 13.4528C35.6144 14.3249 35.3592 15.0378 34.7897 15.7098C34.3221 16.2297 34.3221 16.2297 34.1537 16.3138C34.1537 16.3573 34.1537 16.4008 34.1537 16.4456C34.153 17.5052 34.1511 18.5647 34.1479 19.6243C34.1464 20.1367 34.1453 20.6491 34.1451 21.1615C34.145 21.6082 34.1441 22.055 34.1423 22.5018C34.1413 22.7382 34.1408 22.9746 34.1412 23.211C34.1415 23.4339 34.1408 23.6567 34.1393 23.8796C34.1389 23.9611 34.139 24.0425 34.1394 24.124C34.1424 24.777 34.0597 25.3306 33.5815 25.8213C33.3217 26.0606 33.0162 26.2869 32.6545 26.3164C32.6263 26.3128 32.5982 26.3092 32.5692 26.3054C32.5692 26.3345 32.5692 26.3635 32.5692 26.3935C32.1284 26.3955 31.6876 26.3971 31.2468 26.398C31.0421 26.3985 30.8374 26.3991 30.6327 26.4001C30.4349 26.4011 30.2371 26.4016 30.0393 26.4018C29.9641 26.402 29.8889 26.4023 29.8137 26.4028C29.0589 26.4074 29.0589 26.4074 28.7398 26.3054C28.649 26.2119 28.649 26.2119 28.6078 26.1294C28.6328 26.109 28.6578 26.0887 28.6836 26.0678C29.0867 25.7272 29.4454 25.3023 29.4972 24.7569C29.5346 24.1027 29.4515 23.6136 29.0249 23.0995C28.9066 22.972 28.8026 22.8819 28.6468 22.8012C28.49 22.7181 28.3755 22.6517 28.2556 22.5201C28.1906 22.2761 28.2253 22.019 28.2556 21.7718C28.301 21.7648 28.3463 21.7578 28.393 21.7507C29.0539 21.6443 29.669 21.4652 30.2857 21.2056C30.4124 21.1556 30.4124 21.1556 30.5004 21.1556C30.5004 21.1265 30.5004 21.0975 30.5004 21.0675C30.5738 21.0214 30.6496 20.9791 30.726 20.9382C31.9046 20.2695 32.7335 19.1621 33.1854 17.8984C33.1988 17.864 33.2122 17.8295 33.226 17.794C33.3445 17.4741 33.3915 17.133 33.4495 16.798C33.4101 16.8132 33.4101 16.8132 33.3699 16.8288C33.0431 16.9516 32.7118 17.0514 32.3766 17.1479C32.2789 17.1762 32.1815 17.206 32.085 17.2382C32.0291 17.3529 32.0291 17.3529 31.9832 17.494C31.5259 18.7347 30.6046 19.6486 29.4167 20.2122C29.0226 20.3794 28.6858 20.4523 28.2556 20.4953C28.2556 20.1613 28.2556 19.8272 28.2556 19.483C28.3591 19.4467 28.4626 19.4104 28.5692 19.3729C29.5247 19.0225 30.2418 18.437 30.6765 17.5023C30.7441 17.3329 30.799 17.1607 30.8522 16.9863C30.8906 16.8615 30.9341 16.7423 30.9846 16.622C31.0218 16.619 31.0218 16.619 31.0597 16.616C31.752 16.5593 32.3879 16.459 33.0454 16.2296C33.1508 16.1936 33.253 16.1621 33.3615 16.1378C33.3615 16.1087 33.3615 16.0797 33.3615 16.0497C33.432 16.001 33.5049 15.9558 33.5788 15.9122C34.1976 15.5255 34.7424 14.9057 34.913 14.1763C34.9684 13.8511 34.9755 13.5178 34.99 13.1887Z" fill="#132A47"/>
<path d="M10.6062 29.1665C11.2017 29.1665 11.7973 29.1665 12.4108 29.1665C12.4108 31.2581 12.4108 33.3498 12.4108 35.5048C11.9024 35.5048 11.3941 35.5048 10.8703 35.5048C10.8558 34.3137 10.8412 33.1226 10.8263 31.8955C10.7137 32.1896 10.6011 32.4838 10.4851 32.7868C10.45 32.8785 10.4148 32.9702 10.3786 33.0647C10.1695 33.6112 10.1695 33.6112 9.98217 34.1655C9.94023 34.2892 9.89029 34.4082 9.83866 34.5282C9.73741 34.7645 9.6548 35.0042 9.57672 35.249C9.51002 35.4565 9.51002 35.4565 9.46177 35.5048C9.37054 35.5086 9.27919 35.5095 9.18788 35.5091C9.13242 35.5089 9.07695 35.5088 9.01981 35.5086C8.96081 35.5083 8.9018 35.5079 8.8428 35.5075C8.78363 35.5073 8.72445 35.5071 8.66528 35.5069C8.51996 35.5064 8.37465 35.5057 8.22933 35.5048C8.16352 35.3382 8.09779 35.1715 8.03214 35.0048C8.00988 34.9483 7.9876 34.8919 7.9653 34.8354C7.84257 34.5247 7.72201 34.2136 7.60903 33.8992C7.57025 33.7914 7.53064 33.6839 7.49069 33.5765C7.36225 33.2308 7.23631 32.885 7.12172 32.5344C7.04491 32.3033 6.95529 32.0776 6.86484 31.8515C6.85032 33.0571 6.83579 34.2627 6.82083 35.5048C6.31244 35.5048 5.80406 35.5048 5.28027 35.5048C5.28027 33.4277 5.28027 31.3506 5.28027 29.2105C5.89033 29.2105 6.50039 29.2105 7.12894 29.2105C7.25273 29.52 7.37653 29.8295 7.50032 30.139C7.51681 30.1802 7.51681 30.1802 7.53364 30.2222C7.55835 30.284 7.583 30.3459 7.60761 30.4077C7.71503 30.6773 7.82491 30.9457 7.93601 31.2138C7.97234 31.3016 8.00868 31.3894 8.04501 31.4772C8.1013 31.6132 8.15759 31.7492 8.2139 31.8851C8.42749 32.4009 8.64013 32.9169 8.84555 33.436C8.95978 33.3218 8.99601 33.1944 9.04912 33.0454C9.15236 32.7627 9.26097 32.4827 9.37374 32.2036C9.50453 31.8792 9.6303 31.5534 9.75131 31.2253C9.82721 31.0217 9.90867 30.8205 9.98996 30.619C10.0123 30.5636 10.0346 30.5081 10.057 30.4526C10.1196 30.2972 10.1824 30.1418 10.2453 29.9865C10.2716 29.9215 10.2978 29.8565 10.324 29.7914C10.3622 29.6967 10.4005 29.6021 10.4389 29.5075C10.4506 29.4783 10.4624 29.4491 10.4745 29.419C10.5572 29.2155 10.5572 29.2155 10.6062 29.1665Z" fill="#EEF0F3"/>
<path d="M21.3896 29.2104C21.898 29.2104 22.4064 29.2104 22.9302 29.2104C23.3264 29.7552 23.3264 29.7552 23.4844 30.0175C23.7632 30.4714 24.0642 30.9102 24.3635 31.3507C24.9991 32.2875 24.9991 32.2875 25.2367 32.6502C25.2678 32.6974 25.2988 32.7446 25.3308 32.7932C25.3951 32.9078 25.3951 32.9078 25.3951 33.0398C25.4241 33.0398 25.4532 33.0398 25.4831 33.0398C25.4831 31.7761 25.4831 30.5124 25.4831 29.2104C25.9915 29.2104 26.4999 29.2104 27.0237 29.2104C27.0237 31.2876 27.0237 33.3647 27.0237 35.5047C26.5008 35.5047 25.9779 35.5047 25.4391 35.5047C25.0798 35.0819 25.0798 35.0819 25.0135 34.8811C24.9102 34.6061 24.7607 34.3823 24.5925 34.143C24.5375 34.0621 24.4827 33.9811 24.4279 33.9C24.3725 33.8187 24.3171 33.7374 24.2617 33.656C24.2055 33.5734 24.1494 33.4907 24.0934 33.4079C23.9868 33.2508 23.8801 33.0937 23.7735 32.9367C23.5007 32.5347 23.2351 32.1293 22.9742 31.7193C22.9597 32.9685 22.9452 34.2177 22.9302 35.5047C22.4218 35.5047 21.9134 35.5047 21.3896 35.5047C21.3896 33.4276 21.3896 31.3505 21.3896 29.2104Z" fill="#EEF1F4"/>
<path d="M22.5342 37.9697C26.2064 37.9697 26.2064 37.9697 26.9387 38.6231C27.3521 39.0588 27.4413 39.56 27.4318 40.1348C27.4134 40.603 27.2032 40.9713 26.8917 41.3149C26.652 41.5265 26.4178 41.6985 26.0995 41.7551C26.1297 41.9286 26.2138 42.0694 26.3003 42.22C26.317 42.2494 26.3337 42.2789 26.3509 42.3092C26.5622 42.6787 26.7803 43.0442 26.998 43.4098C27.0553 43.5061 27.1126 43.6024 27.1697 43.6988C27.2142 43.7738 27.2589 43.8486 27.3041 43.9232C27.4199 44.1173 27.4199 44.1173 27.4199 44.264C26.8534 44.264 26.287 44.264 25.7033 44.264C25.6307 44.1278 25.5581 43.9916 25.4832 43.8513C25.4603 43.8085 25.4373 43.7656 25.4136 43.7215C25.3957 43.6877 25.3779 43.654 25.3594 43.6192C25.341 43.5846 25.3226 43.5501 25.3036 43.5144C25.2632 43.4277 25.2632 43.4277 25.2632 43.3397C25.2341 43.3397 25.2051 43.3397 25.1751 43.3397C25.1515 43.2802 25.1515 43.2802 25.1273 43.2196C25.019 42.9669 24.8831 42.728 24.7515 42.4868C24.712 42.4139 24.712 42.4139 24.6717 42.3395C24.5673 42.1227 24.5673 42.1227 24.4269 41.9311C24.3107 41.9166 24.1945 41.9021 24.0747 41.8871C24.0747 42.6715 24.0747 43.4559 24.0747 44.264C23.5663 44.264 23.058 44.264 22.5342 44.264C22.5342 42.1869 22.5342 40.1098 22.5342 37.9697Z" fill="#EEF1F4"/>
<path d="M16.9443 37.9697C20.5739 37.9697 20.5739 37.9697 21.3016 38.6544C21.7164 39.1596 21.8031 39.7563 21.7421 40.3906C21.6487 40.8935 21.3785 41.3176 20.9592 41.6081C20.3749 41.9615 19.7826 42.0401 19.1094 42.0274C18.9033 42.0247 18.6972 42.022 18.4849 42.0192C18.4849 42.7745 18.4849 43.5298 18.4849 44.308C17.9765 44.308 17.4681 44.308 16.9443 44.308C16.9443 42.2164 16.9443 40.1247 16.9443 37.9697Z" fill="#EEF0F3"/>
<path d="M33.1855 37.9697C36.8166 37.9697 36.8166 37.9697 37.5294 38.6272C37.6606 38.7718 37.7428 38.9201 37.8122 39.1021C37.8501 39.2075 37.8501 39.2075 37.92 39.3163C38.0858 39.7092 38.0652 40.295 37.9136 40.6908C37.8341 40.8654 37.738 41.0236 37.6311 41.1829C37.5981 41.2327 37.5981 41.2327 37.5644 41.2835C37.2025 41.7567 36.6815 41.9167 36.1197 42.001C35.8486 42.0316 35.579 42.0284 35.3066 42.0247C35.115 42.0229 34.9235 42.021 34.7261 42.0192C34.7261 42.76 34.7261 43.5007 34.7261 44.264C34.2177 44.264 33.7093 44.264 33.1855 44.264C33.1855 42.1869 33.1855 40.1098 33.1855 37.9697Z" fill="#EEF0F4"/>
<path d="M32.9931 29.7495C33.483 30.1521 33.8844 30.6832 33.9779 31.3231C33.7446 31.3318 33.5113 31.3382 33.2778 31.3425C33.1985 31.3442 33.1191 31.3466 33.0398 31.3497C32.3779 31.3745 32.3779 31.3745 32.1998 31.2483C32.1346 31.1586 32.0881 31.0712 32.0412 30.971C31.6972 30.6654 31.3062 30.5486 30.8523 30.5625C30.4019 30.6049 30.0873 30.7917 29.7827 31.1195C29.4189 31.5683 29.4452 32.2276 29.4883 32.7756C29.5716 33.2129 29.7932 33.6324 30.1477 33.9104C30.5079 34.1278 30.9737 34.154 31.381 34.0961C31.7877 33.9519 32.0687 33.7331 32.2613 33.3478C32.8278 33.3478 33.3943 33.3478 33.9779 33.3478C33.7515 34.1781 33.3371 34.7323 32.5974 35.17C32.2048 35.3821 31.7403 35.5295 31.293 35.5486C31.218 35.5528 31.218 35.5528 31.1415 35.5571C30.2548 35.5839 29.4799 35.3171 28.8059 34.7331C28.1149 34.0487 27.8453 33.2197 27.835 32.2695C27.8378 31.7972 27.8862 31.4036 28.0798 30.971C28.1016 30.9212 28.1235 30.8714 28.146 30.82C28.5362 30.0209 29.2293 29.5064 30.0548 29.2088C31.0709 28.9187 32.1502 29.1326 32.9931 29.7495Z" fill="#EEF0F4"/>
<path d="M43.7061 29.2106C43.955 29.193 44.2035 29.1803 44.4529 29.1719C44.5375 29.1684 44.622 29.1636 44.7065 29.1574C45.3869 29.1093 45.3869 29.1093 45.5892 29.2748C45.729 29.4413 45.8207 29.6297 45.9095 29.827C45.9655 29.9459 46.0368 30.0503 46.1128 30.1572C46.1364 30.1915 46.16 30.2258 46.1843 30.2611C46.2186 30.3103 46.2186 30.3103 46.2535 30.3605C46.3011 30.4294 46.3486 30.4982 46.3962 30.5671C46.4179 30.5985 46.4396 30.6299 46.462 30.6623C46.5423 30.7791 46.6209 30.897 46.6991 31.0152C46.8299 30.9004 46.9039 30.7669 46.9888 30.6161C47.0037 30.59 47.0185 30.5639 47.0337 30.537C47.0811 30.4535 47.1281 30.3699 47.175 30.2862C47.2061 30.2311 47.2372 30.1761 47.2683 30.1211C47.2911 30.0807 47.2911 30.0807 47.3143 30.0394C47.3449 29.9856 47.3759 29.932 47.4073 29.8787C47.4776 29.7588 47.5377 29.6446 47.5853 29.5138C47.6418 29.3731 47.678 29.3027 47.7995 29.2106C48.0903 29.1381 48.4 29.1695 48.6963 29.1831C48.78 29.1853 48.8636 29.1873 48.9472 29.1891C49.1517 29.1939 49.3558 29.2015 49.5602 29.2106C49.409 29.4941 49.2536 29.7709 49.076 30.0386C49.0336 30.1032 48.9914 30.1679 48.9491 30.2326C48.9269 30.2665 48.9047 30.3004 48.8818 30.3354C48.7561 30.5289 48.6328 30.724 48.5093 30.9189C48.3512 31.1683 48.1924 31.4171 48.0308 31.6641C48.0044 31.7044 47.9781 31.7447 47.9509 31.7862C47.9005 31.863 47.8501 31.9397 47.7995 32.0163C47.777 32.0506 47.7544 32.0849 47.7313 32.1202C47.7015 32.1653 47.7015 32.1653 47.6712 32.2112C47.6165 32.2968 47.6165 32.2968 47.5794 32.4237C47.6085 32.4237 47.6375 32.4237 47.6675 32.4237C47.7318 32.5116 47.7318 32.5116 47.8066 32.6347C47.8343 32.6798 47.862 32.7248 47.8906 32.7713C47.9195 32.8191 47.9485 32.8669 47.9783 32.9161C48.1982 33.277 48.4269 33.6283 48.6695 33.9743C48.8311 34.2061 48.9897 34.44 49.1487 34.6736C49.1907 34.7353 49.2328 34.797 49.275 34.8586C49.3369 34.9489 49.3984 35.0393 49.4599 35.1298C49.4789 35.1574 49.4979 35.185 49.5174 35.2135C49.6482 35.4068 49.6482 35.4068 49.6482 35.5048C49.0527 35.5048 48.4571 35.5048 47.8435 35.5048C47.7709 35.3741 47.6983 35.2434 47.6235 35.1087C47.558 35.0067 47.4922 34.9063 47.4237 34.8066C47.4057 34.7802 47.3878 34.7538 47.3693 34.7267C47.313 34.6439 47.2564 34.5613 47.1998 34.4787C47.1616 34.4226 47.1235 34.3666 47.0853 34.3105C47.0486 34.2567 47.012 34.2029 46.9753 34.1491C46.9583 34.1243 46.9414 34.0995 46.924 34.0739C46.855 33.9733 46.7858 33.8746 46.7094 33.7794C46.6551 33.7002 46.6551 33.7002 46.6551 33.5681C46.6261 33.5681 46.597 33.5681 46.5671 33.5681C46.556 33.5984 46.5449 33.6287 46.5335 33.6599C46.4708 33.8076 46.3932 33.9435 46.3114 34.0812C46.2872 34.1224 46.2872 34.1224 46.2624 34.1645C46.211 34.2519 46.1593 34.3392 46.1077 34.4264C46.0731 34.4851 46.0386 34.5437 46.0041 34.6023C45.748 35.0371 45.748 35.0371 45.6594 35.1793C45.5866 35.3002 45.5866 35.3002 45.5107 35.5048C44.9297 35.5048 44.3487 35.5048 43.7501 35.5048C43.818 35.3351 43.8827 35.2031 43.9775 35.05C44.0056 35.0045 44.0337 34.959 44.0627 34.9121C44.1081 34.8392 44.1081 34.8392 44.1545 34.7648C44.1861 34.7137 44.2178 34.6626 44.2494 34.6115C44.3309 34.48 44.4127 34.3486 44.4945 34.2172C44.5693 34.097 44.644 33.9766 44.7188 33.8563C44.7746 33.7666 44.8304 33.677 44.8862 33.5874C44.9132 33.544 44.9401 33.5007 44.9678 33.456C45.0934 33.2547 45.2208 33.0554 45.3546 32.8594C45.3778 32.8251 45.401 32.7907 45.4249 32.7553C45.4679 32.6921 45.5115 32.6294 45.556 32.5673C45.6658 32.4098 45.6658 32.4098 45.6668 32.2251C45.6444 32.189 45.6219 32.1528 45.5987 32.1156C45.5708 32.0674 45.5428 32.0191 45.514 31.9695C45.4792 31.9135 45.4442 31.8577 45.4089 31.802C45.3895 31.7712 45.3701 31.7403 45.3501 31.7086C45.1336 31.3677 44.9041 31.0359 44.6749 30.7036C44.5134 30.4691 44.3528 30.2341 44.1925 29.9989C44.1545 29.943 44.1163 29.8872 44.0781 29.8315C44.0243 29.753 43.9707 29.6744 43.9172 29.5957C43.886 29.5501 43.8549 29.5045 43.8228 29.4575C43.7501 29.3426 43.7501 29.3426 43.7061 29.2106Z" fill="#EEF1F4"/>
<path d="M28.3438 37.9697C29.622 37.9697 30.9002 37.9697 32.2171 37.9697C32.2171 38.391 32.2171 38.8122 32.2171 39.2462C31.4618 39.2462 30.7065 39.2462 29.9283 39.2462C29.9283 39.6529 29.9283 40.0596 29.9283 40.4786C30.5965 40.4786 31.2646 40.4786 31.953 40.4786C31.953 40.8708 31.953 41.263 31.953 41.6671C31.2704 41.6671 30.5877 41.6671 29.8843 41.6671C29.8843 42.1173 29.8843 42.5676 29.8843 43.0315C30.6541 43.0315 31.424 43.0315 32.2171 43.0315C32.2171 43.4382 32.2171 43.845 32.2171 44.264C30.9389 44.264 29.6607 44.264 28.3438 44.264C28.3438 42.1869 28.3438 40.1098 28.3438 37.9697Z" fill="#ECEFF2"/>
<path d="M39.2158 29.2104C40.4795 29.2104 41.7432 29.2104 43.0452 29.2104C43.0452 29.6172 43.0452 30.0239 43.0452 30.4429C42.2754 30.4429 41.5055 30.4429 40.7124 30.4429C40.7124 30.8641 40.7124 31.2854 40.7124 31.7193C41.3805 31.7193 42.0487 31.7193 42.7371 31.7193C42.7371 32.097 42.7371 32.4747 42.7371 32.8638C42.0689 32.8638 41.4008 32.8638 40.7124 32.8638C40.7124 33.3286 40.7124 33.7934 40.7124 34.2723C41.4677 34.2723 42.223 34.2723 43.0012 34.2723C43.0012 34.6644 43.0012 35.0566 43.0012 35.4607C41.752 35.4607 40.5028 35.4607 39.2158 35.4607C39.2158 33.3981 39.2158 31.3355 39.2158 29.2104Z" fill="#F0F2F6"/>
<path d="M29.0022 14.3661C29.3698 14.6538 29.6147 14.9874 29.7532 15.4335C29.7617 15.4597 29.7702 15.486 29.779 15.5131C29.9015 16.1613 29.7434 16.7751 29.4011 17.3261C29.0625 17.7857 28.5689 18.1501 28.0045 18.2776C27.2351 18.3677 26.6011 18.283 25.9679 17.8103C25.5408 17.4634 25.2099 16.9046 25.1316 16.3578C25.0799 15.6892 25.2141 15.1469 25.6515 14.636C26.5216 13.7062 27.9836 13.6852 29.0022 14.3661Z" fill="#162F4B"/>
<path d="M13.0264 29.2104C13.6074 29.2104 14.1884 29.2104 14.787 29.2104C14.8959 29.4719 14.8959 29.4719 15.0071 29.7386C15.0485 29.8316 15.0905 29.9243 15.1336 30.0165C15.1559 30.0642 15.1781 30.1119 15.201 30.1611C15.2242 30.2105 15.2473 30.2599 15.2712 30.3108C15.308 30.39 15.3448 30.4691 15.3817 30.5482C15.5637 30.9391 15.7476 31.3292 15.9314 31.7193C16.0604 31.5651 16.1384 31.3929 16.2196 31.2108C16.2416 31.162 16.2416 31.162 16.2642 31.1123C16.3112 31.0085 16.3579 30.9045 16.4046 30.8005C16.4656 30.6648 16.5268 30.5292 16.5882 30.3937C16.6032 30.3606 16.6181 30.3275 16.6335 30.2934C16.7541 30.0286 16.8832 29.7689 17.0169 29.5105C17.0833 29.3814 17.0833 29.3814 17.1198 29.2104C17.6863 29.2104 18.2528 29.2104 18.8365 29.2104C18.7981 29.4021 18.7576 29.5139 18.6688 29.6826C18.6434 29.7312 18.618 29.7798 18.5918 29.8299C18.5643 29.882 18.5367 29.9341 18.5091 29.9862C18.4808 30.0402 18.4525 30.0941 18.4243 30.1481C18.3419 30.3052 18.2591 30.4621 18.1762 30.619C18.1361 30.6952 18.0961 30.7714 18.056 30.8476C17.9864 30.9802 17.9166 31.1127 17.8468 31.2451C17.8099 31.3152 17.773 31.3852 17.7361 31.4553C17.7139 31.4973 17.6917 31.5393 17.6689 31.5826C17.5976 31.718 17.5265 31.8535 17.4555 31.9889C17.4334 32.0307 17.4114 32.0724 17.3887 32.1154C17.2783 32.3264 17.175 32.5375 17.0822 32.7567C17.0278 32.8722 16.9628 32.9769 16.8964 33.0858C16.7514 33.3508 16.7296 33.5689 16.7323 33.867C16.7317 33.9142 16.7311 33.9614 16.7305 34.01C16.7288 34.1589 16.729 34.3077 16.7292 34.4566C16.7284 34.5583 16.7275 34.66 16.7264 34.7617C16.724 35.0094 16.7239 35.2569 16.7237 35.5047C16.2008 35.5047 15.6779 35.5047 15.1391 35.5047C15.1365 35.3447 15.1338 35.1847 15.131 35.0198C15.1283 34.865 15.1255 34.7101 15.1227 34.5553C15.1208 34.4476 15.119 34.3399 15.1172 34.2323C15.1147 34.0776 15.1119 33.9229 15.109 33.7681C15.1083 33.72 15.1076 33.6718 15.1068 33.6221C15.1055 33.5547 15.1055 33.5547 15.1041 33.486C15.1031 33.4267 15.1031 33.4267 15.1021 33.3663C15.0955 33.2666 15.0789 33.1795 15.0511 33.0838C15.022 33.0838 14.993 33.0838 14.9631 33.0838C14.9491 33.0491 14.9351 33.0143 14.9208 32.9784C14.7284 32.5135 14.4973 32.074 14.2588 31.6313C14.1515 31.4314 14.0442 31.2315 13.9369 31.0316C13.923 31.0057 13.9092 30.9798 13.8948 30.9531C13.6851 30.5621 13.4769 30.1703 13.2712 29.7772C13.2465 29.7302 13.2217 29.6832 13.1963 29.6349C13.1739 29.5918 13.1514 29.5488 13.1283 29.5045C13.1086 29.4667 13.0888 29.4289 13.0684 29.3899C13.0264 29.2985 13.0264 29.2985 13.0264 29.2104Z" fill="#EEF0F4"/>
<path d="M34.9463 29.2104C35.4401 29.2104 35.934 29.2104 36.4428 29.2104C36.4428 30.8954 36.4428 32.5803 36.4428 34.3163C37.111 34.3163 37.7791 34.3163 38.4676 34.3163C38.4676 34.6939 38.4676 35.0716 38.4676 35.4607C37.3055 35.4607 36.1435 35.4607 34.9463 35.4607C34.9463 33.3981 34.9463 31.3355 34.9463 29.2104Z" fill="#F1F3F6"/>
<path d="M30.1045 8.47896C30.7909 8.43954 31.3389 8.50911 31.9532 8.83109C31.9532 8.86014 31.9532 8.88919 31.9532 8.91912C31.9919 8.92973 32.0307 8.94034 32.0706 8.95127C32.5687 9.14107 32.9337 9.70064 33.1679 10.1564C33.2949 10.4423 33.364 10.7227 33.4057 11.0319C33.413 11.0723 33.4204 11.1128 33.4279 11.1544C33.4917 11.6036 33.4633 12.0705 33.4651 12.5238C33.4657 12.6532 33.4669 12.7826 33.4687 12.912C33.4709 13.0693 33.472 13.2266 33.4723 13.3839C33.4727 13.472 33.4742 13.5601 33.4758 13.6482C33.4748 14.0834 33.3878 14.4034 33.0783 14.7182C32.8113 14.9331 32.4295 15.1253 32.0852 15.1253C32.085 15.0491 32.085 15.0491 32.0847 14.9712C32.0831 14.4907 32.0805 14.0103 32.0771 13.5298C32.0754 13.2828 32.074 13.0358 32.0733 12.7888C32.0726 12.5502 32.0711 12.3116 32.069 12.073C32.0683 11.9822 32.068 11.8914 32.068 11.8006C32.0678 11.673 32.0667 11.5453 32.0652 11.4176C32.0654 11.3805 32.0657 11.3434 32.0659 11.3052C32.0595 10.9332 31.9385 10.5839 31.6812 10.3097C31.2765 9.95544 30.806 9.83185 30.2806 9.79944C30.2821 9.75319 30.2836 9.70695 30.2852 9.65931C30.2979 9.21147 30.2979 9.21147 30.1817 8.78243C30.1421 8.68287 30.1232 8.58425 30.1045 8.47896Z" fill="white"/>
<path d="M24.8669 8.47911C24.7882 8.72633 24.7882 8.72633 24.7323 8.82706C24.6836 8.93522 24.6807 9.01085 24.6822 9.12903C24.6825 9.16818 24.6828 9.20733 24.6831 9.24766C24.6838 9.28817 24.6845 9.32869 24.6853 9.37042C24.6857 9.41162 24.6861 9.45281 24.6865 9.49525C24.6875 9.59671 24.689 9.69814 24.6908 9.79958C24.661 9.80122 24.6311 9.80287 24.6004 9.80457C24.0363 9.84441 23.5914 9.9894 23.1998 10.413C22.9243 10.7472 22.88 11.0929 22.8771 11.5127C22.8765 11.5714 22.8765 11.5714 22.8758 11.6312C22.8744 11.76 22.8733 11.8889 22.8722 12.0177C22.8713 12.1072 22.8704 12.1967 22.8695 12.2862C22.867 12.5214 22.8649 12.7567 22.8627 12.9919C22.8605 13.2321 22.8581 13.4723 22.8556 13.7124C22.8509 14.1834 22.8464 14.6545 22.8421 15.1255C22.3553 15.0623 21.9624 14.8514 21.6537 14.4653C21.5217 14.2829 21.5047 14.1518 21.5032 13.9283C21.5028 13.8972 21.5024 13.8661 21.502 13.8341C21.501 13.7315 21.501 13.6289 21.501 13.5263C21.5007 13.4543 21.5004 13.3823 21.5 13.3103C21.4994 13.1591 21.4994 13.008 21.4996 12.8568C21.4999 12.6651 21.4985 12.4734 21.4967 12.2817C21.4956 12.1327 21.4955 11.9837 21.4956 11.8347C21.4956 11.7642 21.4952 11.6936 21.4944 11.6231C21.4855 10.7355 21.7481 9.98807 22.3727 9.34446C23.1083 8.60995 23.8536 8.46561 24.8669 8.47911Z" fill="white"/>
<path d="M27.4766 14.3802C27.6016 14.4232 27.714 14.48 27.8298 14.5436C28.2131 14.7538 28.5725 14.8502 29.0042 14.9053C29.0276 15.8696 28.8075 16.681 28.1347 17.4025C27.7113 17.8296 27.7113 17.8296 27.4802 17.8791C27.036 17.8051 26.6702 17.297 26.4166 16.9564C26.0208 16.3465 25.9027 15.6187 25.9231 14.9053C25.9562 14.9025 25.9894 14.8998 26.0235 14.8969C26.4577 14.8468 26.9509 14.7154 27.2943 14.4306C27.3756 14.3771 27.3756 14.3771 27.4766 14.3802Z" fill="#ECF1F3"/>
<path d="M26.6747 8.46254C26.8786 8.62328 27.0574 8.80732 27.1561 9.05125C27.1678 9.17625 27.1678 9.17625 27.1671 9.31259C27.1674 9.37991 27.1674 9.37991 27.1678 9.44859C27.141 9.74819 26.9817 9.99381 26.7558 10.186C26.5017 10.361 26.2806 10.4129 25.973 10.3973C25.6835 10.3434 25.485 10.182 25.3102 9.95082C25.1282 9.67885 25.09 9.41661 25.1314 9.09526C25.2267 8.79818 25.3898 8.55453 25.6595 8.39101C25.9771 8.28056 26.39 8.27897 26.6747 8.46254Z" fill="white"/>
<path d="M28.7172 8.33607C29.0522 8.31351 29.2744 8.39778 29.533 8.61116C29.7833 8.88387 29.8106 9.12677 29.8062 9.4846C29.7854 9.80203 29.5808 10.028 29.3569 10.2397C29.098 10.4022 28.8182 10.4134 28.5206 10.3718C28.2287 10.2622 27.9921 10.0196 27.8542 9.74285C27.7683 9.47199 27.7492 9.09265 27.8824 8.83399C28.0474 8.63187 28.2153 8.43416 28.4684 8.34982C28.6036 8.34907 28.6036 8.34907 28.7172 8.33607Z" fill="#EDEEF9"/>
<path d="M24.0752 39.2461C24.2586 39.2443 24.442 39.2424 24.6309 39.2406C24.6882 39.2398 24.7456 39.239 24.8047 39.2381C24.8505 39.2379 24.8963 39.2377 24.9435 39.2375C25.0133 39.2368 25.0133 39.2368 25.0846 39.2361C25.3658 39.2569 25.5492 39.3555 25.7478 39.5542C25.8601 39.7737 25.8664 40.0168 25.8358 40.2584C25.7689 40.4629 25.6792 40.6391 25.4837 40.7426C25.2967 40.8148 25.1435 40.8412 24.9435 40.8392C24.8977 40.839 24.8519 40.8388 24.8047 40.8386C24.7186 40.8374 24.7186 40.8374 24.6309 40.8361C24.4475 40.8343 24.2641 40.8325 24.0752 40.8306C24.0752 40.3077 24.0752 39.7848 24.0752 39.2461Z" fill="#172D49"/>
<path d="M34.7266 39.2021C34.9009 39.1985 35.0752 39.1948 35.2548 39.1911C35.3361 39.1887 35.3361 39.1887 35.4191 39.1862C35.7243 39.1832 35.9206 39.2126 36.1791 39.3782C36.3598 39.5637 36.434 39.7269 36.4597 39.9834C36.4514 40.227 36.3834 40.4567 36.2033 40.6269C35.9244 40.837 35.6344 40.8119 35.2988 40.8004C35.0155 40.7936 35.0155 40.7936 34.7266 40.7867C34.7266 40.2638 34.7266 39.7409 34.7266 39.2021Z" fill="#1A2F4B"/>
<path d="M18.4844 39.2021C18.6587 39.1985 18.833 39.1948 19.0126 39.1911C19.0939 39.1887 19.0939 39.1887 19.1769 39.1862C19.508 39.1829 19.7561 39.2182 20.0089 39.4419C20.1821 39.639 20.1764 39.9373 20.1706 40.1857C20.1488 40.3729 20.0991 40.4621 19.9809 40.6106C19.6943 40.8348 19.4112 40.8072 19.0593 40.7977C18.8696 40.794 18.6799 40.7904 18.4844 40.7867C18.4844 40.2638 18.4844 39.7409 18.4844 39.2021Z" fill="#182E4A"/>
<path d="M27.7717 23.6205C27.9842 23.7179 28.1275 23.8674 28.2559 24.0606C28.328 24.2763 28.3482 24.5188 28.2585 24.7307C28.1259 24.953 27.9791 25.1212 27.7277 25.205C27.4545 25.2346 27.1898 25.2583 26.9547 25.0978C26.7389 24.9039 26.6247 24.6546 26.6025 24.366C26.6342 24.1446 26.7101 24.0136 26.8474 23.8406C26.8819 23.797 26.9164 23.7534 26.9519 23.7085C27.1765 23.5371 27.5092 23.5803 27.7717 23.6205Z" fill="#132C49"/>
<path d="M26.2179 4.72556C26.2626 4.72522 26.2626 4.72522 26.3082 4.72487C26.4066 4.72426 26.5051 4.7243 26.6036 4.72441C26.672 4.72423 26.7405 4.72404 26.809 4.72383C26.9525 4.72351 27.096 4.72352 27.2395 4.72375C27.4234 4.72401 27.6073 4.72326 27.7912 4.72224C27.9326 4.72159 28.074 4.72155 28.2154 4.72169C28.2832 4.72167 28.351 4.72144 28.4188 4.72099C28.5136 4.72045 28.6084 4.72075 28.7032 4.72126C28.7842 4.72122 28.7842 4.72122 28.8667 4.72117C29.0134 4.73878 29.0737 4.7699 29.18 4.86969C29.1585 5.15426 29.1585 5.15426 29.0642 5.25286C28.9261 5.32833 28.8251 5.32692 28.668 5.32763C28.6391 5.32794 28.6101 5.32824 28.5803 5.32855C28.4849 5.32935 28.3896 5.32919 28.2942 5.32894C28.2278 5.32914 28.1613 5.32937 28.0949 5.32963C27.9558 5.33003 27.8167 5.32992 27.6776 5.32948C27.4993 5.32898 27.3212 5.32987 27.143 5.33115C27.0058 5.33196 26.8687 5.33195 26.7315 5.3317C26.6658 5.33169 26.6001 5.33196 26.5344 5.3325C26.4425 5.33316 26.3507 5.33269 26.2588 5.33193C26.2066 5.33193 26.1543 5.33192 26.1005 5.33191C25.9391 5.30527 25.8868 5.26441 25.7908 5.13379C25.7716 4.97423 25.7716 4.97423 25.7908 4.82568C25.951 4.71888 26.027 4.72627 26.2179 4.72556Z" fill="#15314D"/>
<path d="M31.111 4.5414C31.1404 4.54144 31.1699 4.54148 31.2002 4.54152C31.2627 4.54178 31.3252 4.54248 31.3877 4.54357C31.4809 4.54514 31.574 4.54537 31.6673 4.54535C32.4747 4.54947 33.2425 4.62471 33.846 5.22192C34.0637 5.47666 34.2038 5.73349 34.2861 6.05822C34.2421 6.10224 34.2421 6.10224 34.1408 6.11891C34.022 6.10224 34.022 6.10224 33.9294 6.00716C33.8991 5.965 33.8689 5.92284 33.8377 5.87941C33.5592 5.51936 33.1968 5.23431 32.7394 5.15348C32.5488 5.1315 32.3618 5.12554 32.1701 5.12306C32.0937 5.12161 32.0172 5.12015 31.9408 5.11867C31.8214 5.11658 31.7021 5.11462 31.5827 5.1129C31.4667 5.11116 31.3507 5.10889 31.2348 5.10655C31.1991 5.10618 31.1634 5.10581 31.1267 5.10543C30.8037 5.09834 30.8037 5.09834 30.6768 5.00184C30.6328 4.8753 30.6328 4.8753 30.6328 4.73775C30.7704 4.54799 30.884 4.53987 31.111 4.5414Z" fill="#163450"/>
<path d="M23.4972 4.55058C23.5546 4.54968 23.612 4.54877 23.6712 4.54783C23.7262 4.54761 23.7812 4.54738 23.8379 4.54714C23.8877 4.54673 23.9374 4.54632 23.9887 4.5459C24.1331 4.5633 24.1942 4.58997 24.295 4.69364C24.3115 4.82843 24.3115 4.82843 24.295 4.95773C24.1712 5.08152 24.0533 5.05884 23.8876 5.05934C23.8211 5.06045 23.7546 5.06157 23.6881 5.0627C23.5841 5.06394 23.4802 5.065 23.3762 5.06585C22.9982 5.06952 22.6299 5.08541 22.2568 5.14995C22.2263 5.15516 22.1958 5.16036 22.1644 5.16572C21.6535 5.26257 21.2903 5.60294 20.9938 6.01411C20.9647 6.05768 20.9357 6.10126 20.9057 6.14616C20.8476 6.13163 20.7895 6.11711 20.7297 6.10214C20.6911 5.97207 20.6795 5.90016 20.7237 5.77013C21.0033 5.25979 21.3666 4.89749 21.9181 4.69364C22.079 4.65026 22.2367 4.62373 22.4023 4.6056C22.4467 4.60006 22.4467 4.60006 22.492 4.59441C22.8268 4.55581 23.1605 4.55194 23.4972 4.55058Z" fill="#15314D"/>
<path d="M25.9229 21.6838C26.0467 21.6974 26.1705 21.7112 26.2942 21.7251C26.3296 21.7289 26.3649 21.7328 26.4013 21.7367C26.6661 21.7669 26.6661 21.7669 26.7151 21.8159C26.7184 21.9346 26.7192 22.0521 26.7179 22.1708C26.7177 22.2042 26.7175 22.2375 26.7173 22.2719C26.7168 22.3547 26.716 22.4374 26.7151 22.5201C26.6861 22.5201 26.657 22.5201 26.6271 22.5201C26.6271 22.3023 26.6271 22.0844 26.6271 21.8599C26.4896 21.8408 26.4896 21.8408 26.3493 21.8214C26.0714 21.7829 26.0714 21.7829 25.9229 21.6838Z" fill="#205A70"/>
<path d="M25.3949 13.3208C25.4239 13.3353 25.453 13.3499 25.4829 13.3648C25.2069 13.6408 24.931 13.9168 24.6466 14.2011C24.6176 14.1866 24.5885 14.1721 24.5586 14.1571C24.8193 13.8554 25.0932 13.5815 25.3949 13.3208Z" fill="#3ABDC6"/>
<path d="M43.7061 29.2104C44.3016 29.2104 44.8971 29.2104 45.5107 29.2104C45.4962 29.2395 45.4817 29.2686 45.4667 29.2985C44.8798 29.2985 44.2929 29.2985 43.7061 29.2985C43.7061 29.2694 43.7061 29.2404 43.7061 29.2104Z" fill="#C8CDD5"/>
<path d="M13.0264 29.2104C13.6074 29.2104 14.1884 29.2104 14.787 29.2104C14.7725 29.2395 14.7579 29.2686 14.743 29.2985C14.6954 29.298 14.6479 29.2976 14.5989 29.2971C14.4229 29.2955 14.2469 29.2945 14.0708 29.2936C13.9946 29.2932 13.9183 29.2926 13.8421 29.2918C13.7326 29.2908 13.6231 29.2903 13.5136 29.2899C13.4623 29.2892 13.4623 29.2892 13.41 29.2885C13.3261 29.2885 13.2422 29.2931 13.1584 29.2985C13.1294 29.3275 13.1003 29.3566 13.0704 29.3865C13.0559 29.3284 13.0413 29.2703 13.0264 29.2104Z" fill="#C8CDD6"/>
<path d="M25.6597 8.39111C25.6888 8.40564 25.7178 8.42016 25.7478 8.43513C25.6025 8.58038 25.4573 8.72563 25.3076 8.87529C25.3076 8.70026 25.3684 8.65129 25.4837 8.52316C25.5827 8.44338 25.5827 8.44338 25.6597 8.39111Z" fill="#B4BBCA"/>
<path d="M28.3444 8.43506C28.2759 8.60317 28.1703 8.71062 28.0363 8.8312C28.0072 8.8312 27.9782 8.8312 27.9482 8.8312C28.0162 8.66446 28.1487 8.43506 28.3444 8.43506Z" fill="#CCD0DE"/>
<path d="M19.189 9.09521C19.1194 9.28335 18.9907 9.37099 18.8369 9.49136C18.8946 9.31837 18.9799 9.09521 19.189 9.09521Z" fill="#39BBC4"/>
</svg>
