<svg width="41" height="67" viewBox="0 0 41 67" fill="none" xmlns="http://www.w3.org/2000/svg">
<g filter="url(#filter0_dd_3040_2377)">
<path d="M20.287 9.52063C22.0873 9.52063 23.548 8.06118 23.548 6.26095C23.548 4.45945 22.0873 3 20.287 3C18.4868 3 17.0273 4.45945 17.0273 6.26095C17.0273 8.06118 18.4868 9.52063 20.287 9.52063Z" fill="#023F86"/>
<path d="M25.1816 10.9475C23.5955 10.6536 21.9587 10.499 20.2877 10.499C18.6154 10.499 16.9799 10.6536 15.3937 10.9475C12.7079 11.4441 10.8646 13.8613 11.0078 16.518L11.6146 27.7729H14.2561V17.0146H15.0719V47.0054H18.6572L19.9621 28.4241H20.6145L21.9169 47.0054H25.5034V17.0146H26.3193V27.7729H28.9607L29.5676 16.518C29.7095 13.8613 27.8662 11.4441 25.1816 10.9475Z" fill="#023F86"/>
</g>
<defs>
<filter id="filter0_dd_3040_2377" x="0.113333" y="0.822666" width="40.3485" height="65.7787" filterUnits="userSpaceOnUse" color-interpolation-filters="sRGB">
<feFlood flood-opacity="0" result="BackgroundImageFix"/>
<feColorMatrix in="SourceAlpha" type="matrix" values="0 0 0 0 0 0 0 0 0 0 0 0 0 0 0 0 0 0 127 0" result="hardAlpha"/>
<feMorphology radius="6.532" operator="erode" in="SourceAlpha" result="effect1_dropShadow_3040_2377"/>
<feOffset dy="8.70933"/>
<feGaussianBlur stdDeviation="8.70933"/>
<feColorMatrix type="matrix" values="0 0 0 0 0.0745098 0 0 0 0 0.0980392 0 0 0 0 0.152941 0 0 0 0.08 0"/>
<feBlend mode="normal" in2="BackgroundImageFix" result="effect1_dropShadow_3040_2377"/>
<feColorMatrix in="SourceAlpha" type="matrix" values="0 0 0 0 0 0 0 0 0 0 0 0 0 0 0 0 0 0 127 0" result="hardAlpha"/>
<feMorphology radius="6.532" operator="erode" in="SourceAlpha" result="effect2_dropShadow_3040_2377"/>
<feOffset dy="6.532"/>
<feGaussianBlur stdDeviation="4.35467"/>
<feColorMatrix type="matrix" values="0 0 0 0 0.0745098 0 0 0 0 0.0980392 0 0 0 0 0.152941 0 0 0 0.12 0"/>
<feBlend mode="normal" in2="effect1_dropShadow_3040_2377" result="effect2_dropShadow_3040_2377"/>
<feBlend mode="normal" in="SourceGraphic" in2="effect2_dropShadow_3040_2377" result="shape"/>
</filter>
</defs>
</svg>
