<svg width="72" height="64" viewBox="0 0 72 64" fill="none" xmlns="http://www.w3.org/2000/svg">
<g clip-path="url(#clip0_3040_2371)" filter="url(#filter0_dd_3040_2371)">
<path d="M56.7904 19.1034L56.7792 19.093L56.7883 19.1021C56.5914 18.9016 56.3706 18.7202 56.1273 18.5585C56.0436 18.5578 55.9592 18.541 55.8784 18.5058C55.7477 18.4502 55.6457 18.3567 55.5761 18.2449C55.1872 18.06 54.7801 17.9412 54.3674 17.8828C54.0067 17.833 53.7578 17.5003 53.8084 17.1403C53.8582 16.781 54.1909 16.5307 54.5495 16.5805C54.9608 16.639 55.3694 16.7444 55.7653 16.897C55.8279 16.6101 55.863 16.3176 55.863 16.0209C55.8624 15.3739 55.7105 14.72 55.3863 14.1061V14.1054C55.0158 13.4023 54.4758 12.8546 53.8401 12.4784C53.2838 12.1493 52.6567 11.9544 52.0111 11.9115C51.964 12.4966 51.8241 13.0838 51.5794 13.6505C51.436 13.9838 51.0493 14.1384 50.7152 13.995C50.3819 13.8515 50.2273 13.4649 50.3707 13.1308C50.6049 12.5852 50.7152 12.0212 50.7167 11.4637C50.7167 11.3835 50.7132 11.3041 50.7096 11.2246C50.6661 10.4526 50.4086 9.7051 49.9727 9.07012C49.536 8.43445 48.925 7.91266 48.1635 7.58512C47.6179 7.34954 47.0526 7.23909 46.4956 7.23909C45.4289 7.23909 44.3953 7.64975 43.6161 8.37463C43.7624 8.87106 43.8433 9.3956 43.8433 9.93844C43.8433 10.3012 43.5487 10.5952 43.1858 10.5952C42.8222 10.5952 42.5276 10.3012 42.5276 9.93844C42.5276 9.40548 42.4296 8.90054 42.2509 8.43093L42.2512 8.43153C41.9482 7.6384 41.4112 6.95839 40.7254 6.47751C40.0398 5.99655 39.2098 5.71533 38.3073 5.71533C37.5219 5.71533 36.7912 5.92762 36.163 6.29891C35.6606 6.59561 35.2264 6.99578 34.886 7.46685C35.5515 8.3803 35.9443 9.5081 35.944 10.7231C35.944 11.086 35.6497 11.3799 35.2865 11.3799C34.9226 11.3799 34.6283 11.0859 34.6283 10.7231C34.6279 9.6543 34.2348 8.68258 33.5824 7.93999L33.5814 7.93931C32.8054 7.05474 31.6733 6.50072 30.4059 6.49995C29.5252 6.50063 28.7131 6.76716 28.0363 7.22637C27.3606 7.6855 26.8237 8.33595 26.5056 9.09882C26.2991 9.5974 26.1832 10.1473 26.1832 10.7231C26.1832 11.086 25.8892 11.3799 25.5257 11.3799C25.1625 11.3799 24.8679 11.0859 24.8679 10.7231C24.8679 10.1894 24.9456 9.67261 25.0862 9.18322C24.5908 8.98211 24.0554 8.87235 23.5041 8.87235C23.1923 8.87235 22.8752 8.90819 22.5577 8.98064C21.6214 9.19586 20.8356 9.70209 20.264 10.3849C19.8509 10.8778 19.5548 11.4628 19.4001 12.0928C20.7604 12.1182 22.1189 12.6427 23.1663 13.6686C23.4256 13.9224 23.4303 14.3386 23.1761 14.5981C22.9223 14.8575 22.5057 14.8618 22.2461 14.6086C21.4231 13.8035 20.3596 13.4034 19.2922 13.402C19.1009 13.402 18.9103 13.4161 18.7211 13.4407L18.7187 13.4414H18.7177H18.717C17.8208 13.5638 16.9591 13.9716 16.2742 14.6691C15.4687 15.4924 15.0697 16.5536 15.0694 17.6216C15.0694 18.2341 15.2019 18.8472 15.4663 19.4126C15.6748 19.8584 15.9645 20.2746 16.3371 20.6403L16.3378 20.641C16.7615 21.0572 17.2495 21.3631 17.7694 21.5649C18.108 21.6949 18.2764 22.0761 18.1452 22.415C18.0141 22.7539 17.6333 22.9227 17.2948 22.7912C16.6134 22.5282 15.9703 22.1239 15.416 21.5797C15.173 21.3406 14.9557 21.0846 14.7652 20.8153C14.268 21.5272 13.999 22.3788 13.999 23.2451C13.9994 23.9166 14.1594 24.5951 14.499 25.2315C14.8808 25.9445 15.4334 26.5 16.0825 26.8804C16.5968 27.1821 17.1709 27.3698 17.762 27.4359L17.7609 27.3979C17.7609 27.0498 17.7933 26.7081 17.8544 26.3776C17.9205 26.0204 18.2636 25.7848 18.6205 25.8501C18.978 25.9156 19.214 26.2601 19.1482 26.6173C19.1011 26.8704 19.0761 27.1313 19.0761 27.3978C19.0761 27.499 19.08 27.6003 19.087 27.7015C19.0948 27.8091 19.106 27.9118 19.1223 28.0096L19.1229 28.0145L19.1236 28.0194C19.4246 30.0845 21.2074 31.6252 23.2961 31.6252C23.396 31.6252 23.4972 31.6209 23.5989 31.6139H23.5999C24.526 31.5471 25.3575 31.1892 26.0157 30.6337C26.4805 30.2414 26.858 29.7527 27.1185 29.2013C27.2736 28.873 27.6659 28.7324 27.9943 28.8878C28.3227 29.0432 28.4629 29.4348 28.3079 29.7632C28.0276 30.356 27.6441 30.8903 27.1811 31.3474C27.4398 32.1406 27.9253 32.8248 28.5582 33.3318C29.2856 33.9133 30.2004 34.255 31.1876 34.255C31.2875 34.255 31.388 34.2522 31.4907 34.2444H31.4917C32.1182 34.1988 32.6976 34.0201 33.2113 33.7396C33.1304 33.3606 33.0857 32.9731 33.0857 32.5822C33.0857 31.775 33.264 30.9537 33.6374 30.1802C33.7948 29.8518 34.1883 29.7154 34.5153 29.873C34.8422 30.0304 34.9801 30.4235 34.8222 30.7505C34.536 31.3454 34.401 31.9676 34.401 32.5822C34.401 33.0132 34.4678 33.4407 34.5961 33.8486L34.5964 33.8493C34.9332 34.9237 35.6947 35.8603 36.7909 36.3883C37.3833 36.6744 38.0056 36.8095 38.6205 36.8095C39.5951 36.8095 40.5493 36.4684 41.3034 35.8497L41.3058 35.8483C41.7647 35.4701 42.1507 34.9918 42.4263 34.4209L42.427 34.4187C42.685 33.885 42.8193 33.3253 42.8439 32.767C42.8601 32.4042 43.1673 32.1229 43.5309 32.1384C43.893 32.1553 44.1742 32.4619 44.1587 32.8248C44.1257 33.556 43.9492 34.2943 43.611 34.9918L43.6117 34.9912C43.3396 35.5551 42.9837 36.0522 42.566 36.4755C43.3416 37.5906 44.632 38.291 46.027 38.2903C46.2864 38.2903 46.5494 38.2657 46.8152 38.2165C47.8299 38.0245 48.6863 37.4887 49.2952 36.7483C49.9035 36.0079 50.2571 35.067 50.2571 34.0734C50.2571 34.0425 50.2564 34.0123 50.2557 33.9834V33.9793C50.2521 33.7543 50.2282 33.5209 50.1832 33.286C50.0784 32.727 49.8648 32.22 49.573 31.7699C49.1482 31.3952 48.6743 30.9072 48.2293 30.363C47.7561 29.7829 47.3173 29.1494 47.0234 28.5102C46.83 28.082 46.6921 27.6509 46.6894 27.1946C46.6894 26.9928 46.7196 26.784 46.7934 26.5821C46.868 26.3803 46.9889 26.1863 47.1493 26.0274V26.028C47.4059 25.7707 47.8221 25.7707 48.0789 26.028C48.3355 26.284 48.3355 26.7017 48.0789 26.9576C48.0535 26.9843 48.0409 27.004 48.0282 27.0371C48.0156 27.0708 48.005 27.1208 48.005 27.1945C48.0022 27.3597 48.0705 27.6411 48.2196 27.9624C48.3665 28.2837 48.5852 28.6445 48.8419 29.001C49.3517 29.7154 50.0133 30.4171 50.5112 30.8432L50.5787 30.9016L50.6287 30.9747C51.0365 31.5814 51.3332 32.2797 51.4766 33.0426V33.0433C51.4971 33.1523 51.5104 33.2605 51.5244 33.3703C51.5891 33.3731 51.6552 33.3787 51.7213 33.3787C52.556 33.378 53.3948 33.1313 54.1332 32.6122C54.7203 32.2002 55.1668 31.6694 55.4698 31.0738C55.7729 30.4775 55.9304 29.8172 55.9297 29.1528C55.9297 28.5305 55.7905 27.9069 55.5093 27.3253C55.2512 27.409 54.9883 27.4751 54.7203 27.5215C54.3624 27.5834 54.022 27.3429 53.9595 26.9843C53.899 26.6264 54.1395 26.2868 54.4973 26.225C55.6625 26.0238 56.7278 25.3461 57.3888 24.2568C57.8064 23.5712 58.0033 22.8168 58.0041 22.0693C58.0041 20.9739 57.5773 19.8995 56.7904 19.1034ZM26.6494 14.083C27.2788 13.3404 28.1134 12.8124 29.0099 12.4671C29.9082 12.1218 30.8732 11.9552 31.7979 11.9552C32.6983 11.9559 33.5618 12.1113 34.297 12.4488C34.6264 12.6007 34.7705 12.9916 34.6186 13.3215C34.466 13.6519 34.0751 13.7954 33.7453 13.6435C33.2366 13.4065 32.5429 13.2694 31.7979 13.2701C31.0329 13.2701 30.2151 13.4121 29.4828 13.6948C28.7491 13.976 28.1057 14.3972 27.6532 14.9323V14.933C27.4191 15.2093 27.0039 15.2446 26.7265 15.0097C26.4494 14.7749 26.4146 14.36 26.6494 14.083ZM41.6213 29.6353C40.857 29.6367 40.1627 29.5503 39.5287 29.4033C39.5463 29.584 39.5582 29.7844 39.5582 29.9989C39.5582 30.4285 39.5125 30.9185 39.3765 31.4334C39.2408 31.9473 39.0133 32.4873 38.6543 33.0063C38.4476 33.3044 38.0381 33.379 37.7388 33.1722C37.4404 32.9655 37.3658 32.5563 37.5729 32.2567C37.8366 31.8756 38.0026 31.4825 38.1048 31.0973C38.2067 30.7119 38.243 30.3351 38.243 29.999C38.2433 29.5356 38.1737 29.1509 38.1234 28.9344C37.8025 28.7888 37.504 28.6243 37.2284 28.4443C36.1275 27.7299 35.3906 26.7891 34.9269 25.8925C34.6172 25.2941 34.4266 24.7133 34.3264 24.2098C34.2688 23.9229 34.2403 23.6606 34.2403 23.4238C34.2403 23.0602 34.5345 22.7657 34.8984 22.7657C35.2616 22.7657 35.5559 23.0602 35.5559 23.4238C35.5548 23.6164 35.596 23.9357 35.7004 24.2985C35.804 24.6635 35.9697 25.079 36.2091 25.4966C36.689 26.3334 37.4519 27.1729 38.6276 27.7179C39.4133 28.0822 40.3911 28.3191 41.6213 28.3198C41.9845 28.3198 42.2791 28.6145 42.2791 28.9772C42.2791 29.3407 41.9845 29.6353 41.6213 29.6353ZM46.2523 24.8321C46.1166 25.1689 45.7341 25.3334 45.3965 25.1977C45.0605 25.0635 44.8967 24.6831 45.0295 24.3455V24.3448L45.0338 24.335C45.0379 24.3236 45.0442 24.304 45.0534 24.2773C45.071 24.2252 45.0956 24.1423 45.1202 24.0396C45.1708 23.8321 45.2208 23.5389 45.2208 23.2169L45.2186 23.1698C44.3179 23.4764 43.4784 23.6163 42.706 23.6163C41.5387 23.6177 40.5297 23.2978 39.7077 22.8119C38.8843 22.326 38.2444 21.6826 37.7663 21.0308C37.2228 20.289 36.5091 19.6251 35.6924 19.1541C34.8746 18.6829 33.9591 18.4031 32.9866 18.4025C32.133 18.4045 31.2284 18.6169 30.2816 19.1352C29.3847 19.6287 28.8057 20.2855 28.4326 21.0055C28.0617 21.7249 27.9067 22.5138 27.907 23.2304C27.9052 23.8948 28.0445 24.4953 28.2273 24.8757C28.3827 25.2048 28.2424 25.5965 27.914 25.7526C27.586 25.9073 27.1936 25.7681 27.0378 25.439C26.7531 24.8323 26.5934 24.07 26.5917 23.2305C26.592 22.3972 26.758 21.4874 27.1627 20.6161C26.3473 20.8011 25.5897 20.8833 24.8982 20.8826C24.5252 20.8832 24.174 20.8573 23.8392 20.8165C23.816 20.9036 23.7756 20.988 23.7148 21.0619L23.7144 21.0625H23.7137L23.706 21.0724C23.699 21.0823 23.6867 21.0978 23.6705 21.1181C23.6385 21.1603 23.5907 21.2257 23.5306 21.3108C23.411 21.4802 23.2448 21.732 23.0651 22.0491C22.7051 22.682 22.2962 23.5729 22.0961 24.5748C22.0255 24.9314 21.6785 25.1627 21.3223 25.091C20.9662 25.0199 20.7352 24.6739 20.8066 24.3167C21.045 23.127 21.5132 22.118 21.9207 21.4C22.1327 21.0266 22.3274 20.7334 22.4699 20.5323C21.9334 20.3713 21.469 20.1744 21.0904 19.974C20.2247 19.5141 19.7723 19.0521 19.7357 19.0149C19.4836 18.7533 19.4914 18.3371 19.7526 18.0854C20.0134 17.8337 20.4283 17.8414 20.68 18.1002L20.6807 18.0995L20.687 18.1058L20.7275 18.1445C20.7662 18.1797 20.8291 18.2338 20.9149 18.3014C21.0864 18.437 21.3516 18.6233 21.7059 18.8104C22.4157 19.1859 23.4768 19.5664 24.8982 19.5678C25.896 19.5678 27.0752 19.3772 28.4435 18.8513C28.7908 18.5285 29.1895 18.2331 29.6494 17.9822C30.7741 17.3641 31.9093 17.087 32.9865 17.0878C34.215 17.0878 35.3597 17.4443 36.3494 18.0153C37.3401 18.5876 38.1807 19.3724 38.8269 20.2526C39.2189 20.7871 39.736 21.3024 40.3752 21.6787C41.0161 22.0549 41.7766 22.3003 42.7058 22.301C43.3411 22.301 44.0597 22.1836 44.8705 21.8988C44.6743 21.5796 44.3782 21.2722 43.8924 20.9952C43.576 20.8166 43.4649 20.4144 43.6435 20.0987C43.8222 19.7823 44.2236 19.6711 44.5394 19.8491C45.3177 20.2879 45.8388 20.8686 46.1404 21.4748C46.4449 22.0809 46.5363 22.6947 46.5363 23.2172C46.5335 24.1282 46.2692 24.785 46.2523 24.8321ZM46.0062 16.7732C44.4691 16.7739 43.1246 16.3591 42.0369 15.7311C41.8846 15.9449 41.6786 16.2107 41.4138 16.5025C40.819 17.155 39.9436 17.9222 38.7732 18.3426C38.4311 18.465 38.0549 18.2864 37.9325 17.944C37.8106 17.6016 37.9887 17.226 38.3308 17.1037C39.1933 16.7978 39.9153 16.1917 40.4168 15.644C40.6478 15.3937 40.8284 15.1588 40.9596 14.976C40.3092 14.4276 39.7976 13.8032 39.4474 13.1619C39.1127 12.5445 38.9194 11.9102 38.9176 11.2915C38.9176 10.9287 39.2119 10.6348 39.575 10.6348C39.9382 10.6348 40.2328 10.9287 40.2328 11.2915C40.2311 11.6241 40.3478 12.0678 40.6023 12.5326C40.8558 12.9988 41.2407 13.4853 41.7421 13.9199C42.7462 14.7903 44.1983 15.4576 46.0061 15.4576C46.369 15.4576 46.6636 15.7523 46.6636 16.1157C46.6637 16.4794 46.369 16.7732 46.0062 16.7732ZM51.1912 26.0352C50.9592 26.315 50.5444 26.3544 50.2644 26.1231C49.9847 25.8917 49.9452 25.4769 50.1766 25.197C50.8924 24.3252 51.1581 23.449 51.1603 22.6087C51.1617 21.8444 50.929 21.1054 50.5619 20.4845C50.197 19.8622 49.6964 19.3658 49.2141 19.0894C48.8927 18.9031 48.5868 18.818 48.3449 18.8187C47.9813 18.8187 47.6868 18.5248 47.6868 18.1612C47.6868 17.7984 47.9814 17.5038 48.3449 17.5038C48.7457 17.5038 49.1366 17.6016 49.5079 17.7653C49.8784 17.9285 50.23 18.1584 50.5563 18.4397C51.2068 19.0022 51.7601 19.7693 52.1067 20.6673C52.3381 21.2657 52.4766 21.9224 52.4766 22.6086C52.4787 23.738 52.0934 24.946 51.1912 26.0352Z" fill="#023F86"/>
</g>
<defs>
<filter id="filter0_dd_3040_2371" x="0.0344715" y="-2.79311" width="71.9359" height="71.9359" filterUnits="userSpaceOnUse" color-interpolation-filters="sRGB">
<feFlood flood-opacity="0" result="BackgroundImageFix"/>
<feColorMatrix in="SourceAlpha" type="matrix" values="0 0 0 0 0 0 0 0 0 0 0 0 0 0 0 0 0 0 127 0" result="hardAlpha"/>
<feMorphology radius="8.37932" operator="erode" in="SourceAlpha" result="effect1_dropShadow_3040_2371"/>
<feOffset dy="11.1724"/>
<feGaussianBlur stdDeviation="11.1724"/>
<feColorMatrix type="matrix" values="0 0 0 0 0.0745098 0 0 0 0 0.0980392 0 0 0 0 0.152941 0 0 0 0.08 0"/>
<feBlend mode="normal" in2="BackgroundImageFix" result="effect1_dropShadow_3040_2371"/>
<feColorMatrix in="SourceAlpha" type="matrix" values="0 0 0 0 0 0 0 0 0 0 0 0 0 0 0 0 0 0 127 0" result="hardAlpha"/>
<feMorphology radius="8.37932" operator="erode" in="SourceAlpha" result="effect2_dropShadow_3040_2371"/>
<feOffset dy="8.37932"/>
<feGaussianBlur stdDeviation="5.58621"/>
<feColorMatrix type="matrix" values="0 0 0 0 0.0745098 0 0 0 0 0.0980392 0 0 0 0 0.152941 0 0 0 0.12 0"/>
<feBlend mode="normal" in2="effect1_dropShadow_3040_2371" result="effect2_dropShadow_3040_2371"/>
<feBlend mode="normal" in="SourceGraphic" in2="effect2_dropShadow_3040_2371" result="shape"/>
</filter>
<clipPath id="clip0_3040_2371">
<rect width="44.0051" height="44.0051" fill="white" transform="translate(14)"/>
</clipPath>
</defs>
</svg>
