<svg width="61" height="71" viewBox="0 0 61 71" fill="none" xmlns="http://www.w3.org/2000/svg">
<g filter="url(#filter0_dd_3040_2392)">
<path d="M30.293 13.4312C27.3708 13.4312 24.9814 11.0762 24.9814 8.15402C24.9814 5.249 27.3536 2.89404 30.293 2.89404C33.2324 2.89404 35.6045 5.249 35.6045 8.15402C35.6045 11.0762 33.2324 13.4312 30.293 13.4312Z" fill="#023F86"/>
<path d="M46.2116 35.2618L42.0346 20.7023C40.3672 14.8751 35.4854 15.0642 35.4854 15.0642H25.1029C25.1029 15.0642 20.2383 14.8751 18.5538 20.7023L14.3767 35.2618C13.9814 36.6198 14.7205 37.6683 15.9238 37.9949C17.1098 38.3387 18.3303 37.7371 18.6397 36.6542L22.6964 22.4557H24.6904L18.1928 45.1114H42.4127L35.8979 22.4557H37.8747L41.9486 36.6542C42.258 37.7371 43.4785 38.3387 44.6646 37.9949C45.8678 37.6511 46.607 36.6198 46.2116 35.2618ZM38.1498 35.915C38.1498 40.2468 34.6431 43.7706 30.2942 43.7706C25.9624 43.7706 22.4386 40.2468 22.4386 35.915C22.4386 31.5833 25.9452 28.0594 30.2942 28.0594C34.6259 28.0594 38.1498 31.5661 38.1498 35.915Z" fill="#023F86"/>
<path d="M31.979 33.9896C31.0335 33.5427 30.6382 32.4253 31.0851 31.4799C31.532 30.5345 32.6493 30.1391 33.5948 30.5861C34.5402 31.033 34.9355 32.1503 34.4886 33.0957C34.0417 34.0412 32.9244 34.4365 31.979 33.9896Z" fill="#023F86"/>
<path d="M33.7498 36.6198C33.5607 37.0151 32.5637 39.1122 32.3746 39.5248C31.8246 40.6937 30.415 41.2094 29.229 40.6421C28.8508 40.453 28.5586 40.178 28.3007 39.8686C27.9226 39.4045 27.6819 38.1496 27.6819 38.1496C27.2865 38.4247 26.2896 39.0607 25.877 39.3529C25.4988 39.6107 24.9832 39.5248 24.7081 39.1466C24.4331 38.7685 24.5362 38.2528 24.9144 37.9777C25.516 37.5652 27.1662 36.4307 27.1662 36.4307C27.6647 36.0697 28.3695 36.19 28.7133 36.7057L29.418 38.1324L30.5354 35.8806L29.5556 35.5884C29.3493 35.5196 29.1602 35.3821 29.0571 35.1759L28.0944 33.3366C27.8882 32.9412 28.0429 32.4427 28.4382 32.2365C28.8336 32.0302 29.3321 32.1849 29.5384 32.5802C29.5384 32.5802 30.1056 33.6804 30.3291 34.1101C30.862 34.2648 32.9934 34.8836 32.9934 34.8836C33.1138 34.918 33.1997 34.9868 33.2857 35.0555C33.8014 35.4165 34.0076 36.0697 33.7498 36.6198Z" fill="#023F86"/>
</g>
<defs>
<filter id="filter0_dd_3040_2392" x="-5.98914" y="-0.797829" width="71.9832" height="71.9832" filterUnits="userSpaceOnUse" color-interpolation-filters="sRGB">
<feFlood flood-opacity="0" result="BackgroundImageFix"/>
<feColorMatrix in="SourceAlpha" type="matrix" values="0 0 0 0 0 0 0 0 0 0 0 0 0 0 0 0 0 0 127 0" result="hardAlpha"/>
<feMorphology radius="8.39348" operator="erode" in="SourceAlpha" result="effect1_dropShadow_3040_2392"/>
<feOffset dy="11.1913"/>
<feGaussianBlur stdDeviation="11.1913"/>
<feColorMatrix type="matrix" values="0 0 0 0 0.0745098 0 0 0 0 0.0980392 0 0 0 0 0.152941 0 0 0 0.08 0"/>
<feBlend mode="normal" in2="BackgroundImageFix" result="effect1_dropShadow_3040_2392"/>
<feColorMatrix in="SourceAlpha" type="matrix" values="0 0 0 0 0 0 0 0 0 0 0 0 0 0 0 0 0 0 127 0" result="hardAlpha"/>
<feMorphology radius="8.39348" operator="erode" in="SourceAlpha" result="effect2_dropShadow_3040_2392"/>
<feOffset dy="8.39348"/>
<feGaussianBlur stdDeviation="5.59566"/>
<feColorMatrix type="matrix" values="0 0 0 0 0.0745098 0 0 0 0 0.0980392 0 0 0 0 0.152941 0 0 0 0.12 0"/>
<feBlend mode="normal" in2="effect1_dropShadow_3040_2392" result="effect2_dropShadow_3040_2392"/>
<feBlend mode="normal" in="SourceGraphic" in2="effect2_dropShadow_3040_2392" result="shape"/>
</filter>
</defs>
</svg>
