<svg width="14" height="13" viewBox="0 0 14 13" fill="none" xmlns="http://www.w3.org/2000/svg">
<path d="M6.45654 0.672598C6.6276 0.146135 7.3724 0.146137 7.54346 0.6726L8.66782 4.13302C8.74432 4.36846 8.96372 4.52786 9.21128 4.52786H12.8498C13.4033 4.52786 13.6335 5.23622 13.1857 5.56159L10.242 7.70024C10.0418 7.84575 9.95796 8.10368 10.0345 8.33912L11.1588 11.7995C11.3299 12.326 10.7273 12.7638 10.2795 12.4384L7.33588 10.2998C7.1356 10.1542 6.8644 10.1542 6.66412 10.2998L3.72052 12.4384C3.27268 12.7638 2.67012 12.326 2.84118 11.7995L3.96554 8.33912C4.04204 8.10368 3.95823 7.84575 3.75795 7.70024L0.814345 5.56159C0.366509 5.23621 0.596668 4.52786 1.15022 4.52786H4.78872C5.03628 4.52786 5.25568 4.36846 5.33218 4.13302L6.45654 0.672598Z" fill="#C2C2C2"/>
</svg>
