<svg width="36" height="34" viewBox="0 0 36 34" fill="none" xmlns="http://www.w3.org/2000/svg">
<path d="M17.0676 1.40576C17.3976 0.554271 18.6024 0.554273 18.9324 1.40576L22.8219 11.4412C22.9638 11.8073 23.3068 12.0565 23.6988 12.0783L34.445 12.6763C35.3568 12.727 35.7291 13.8729 35.0212 14.4499L26.6789 21.2501C26.3746 21.4982 26.2436 21.9014 26.344 22.2809L29.096 32.686C29.3295 33.5688 28.3548 34.277 27.5873 33.7821L18.5419 27.9494C18.212 27.7367 17.788 27.7367 17.4581 27.9494L8.41271 33.7821C7.64522 34.277 6.67052 33.5688 6.90403 32.686L9.65604 22.2809C9.75642 21.9014 9.62542 21.4982 9.32111 21.2501L0.978751 14.4499C0.270918 13.8729 0.643223 12.727 1.55502 12.6763L12.3012 12.0783C12.6932 12.0565 13.0362 11.8073 13.1781 11.4412L17.0676 1.40576Z" fill="#023F86"/>
</svg>
