<svg width="36" height="34" viewBox="0 0 36 34" fill="none" xmlns="http://www.w3.org/2000/svg">
<path d="M17.2074 1.45997C17.488 0.736202 18.512 0.736203 18.7926 1.45997L22.6821 11.4954C22.8452 11.9164 23.2396 12.203 23.6904 12.2281L34.4366 12.8261C35.2117 12.8692 35.5281 13.8432 34.9265 14.3336L26.5841 21.1339C26.2342 21.4191 26.0835 21.8828 26.1989 22.3193L28.951 32.7243C29.1494 33.4748 28.3209 34.0767 27.6686 33.656L18.6232 27.8234C18.2438 27.5787 17.7562 27.5787 17.3768 27.8234L8.33142 33.656C7.67906 34.0767 6.85056 33.4748 7.04904 32.7243L9.80105 22.3193C9.9165 21.8828 9.76584 21.4191 9.41588 21.1339L1.07353 14.3336C0.471868 13.8432 0.788326 12.8692 1.56335 12.8261L12.3096 12.2281C12.7604 12.203 13.1548 11.9164 13.3179 11.4954L17.2074 1.45997Z" fill="white" stroke="black" stroke-width="0.3"/>
</svg>
