<svg width="25" height="24" viewBox="0 0 25 24" fill="none" xmlns="http://www.w3.org/2000/svg">
<path d="M12.5 7V21" stroke="white" stroke-width="1.5" stroke-linecap="round" stroke-linejoin="round"/>
<path d="M3.5 18C3.23478 18 2.98043 17.8946 2.79289 17.7071C2.60536 17.5196 2.5 17.2652 2.5 17V4C2.5 3.73478 2.60536 3.48043 2.79289 3.29289C2.98043 3.10536 3.23478 3 3.5 3H8.5C9.56087 3 10.5783 3.42143 11.3284 4.17157C12.0786 4.92172 12.5 5.93913 12.5 7C12.5 5.93913 12.9214 4.92172 13.6716 4.17157C14.4217 3.42143 15.4391 3 16.5 3H21.5C21.7652 3 22.0196 3.10536 22.2071 3.29289C22.3946 3.48043 22.5 3.73478 22.5 4V17C22.5 17.2652 22.3946 17.5196 22.2071 17.7071C22.0196 17.8946 21.7652 18 21.5 18H15.5C14.7044 18 13.9413 18.3161 13.3787 18.8787C12.8161 19.4413 12.5 20.2044 12.5 21C12.5 20.2044 12.1839 19.4413 11.6213 18.8787C11.0587 18.3161 10.2956 18 9.5 18H3.5Z" stroke="white" stroke-width="1.5" stroke-linecap="round" stroke-linejoin="round"/>
</svg>
