<svg width="23" height="20" viewBox="0 0 23 20" fill="none" xmlns="http://www.w3.org/2000/svg">
<path d="M2.5 16C2.23478 16 1.98043 15.8946 1.79289 15.7071C1.60536 15.5196 1.5 15.2652 1.5 15V2C1.5 1.73478 1.60536 1.48043 1.79289 1.29289C1.98043 1.10536 2.23478 1 2.5 1H7.5C8.56087 1 9.57828 1.42143 10.3284 2.17157C11.0786 2.92172 11.5 3.93913 11.5 5C11.5 3.93913 11.9214 2.92172 12.6716 2.17157C13.4217 1.42143 14.4391 1 15.5 1H20.5C20.7652 1 21.0196 1.10536 21.2071 1.29289C21.3946 1.48043 21.5 1.73478 21.5 2V15C21.5 15.2652 21.3946 15.5196 21.2071 15.7071C21.0196 15.8946 20.7652 16 20.5 16H14.5C13.7044 16 12.9413 16.3161 12.3787 16.8787C11.8161 17.4413 11.5 18.2044 11.5 19C11.5 18.2044 11.1839 17.4413 10.6213 16.8787C10.0587 16.3161 9.29565 16 8.5 16H2.5Z" stroke="black" stroke-width="1.5" stroke-linecap="round" stroke-linejoin="round"/>
</svg>
