<svg width="43" height="68" viewBox="0 0 43 68" fill="none" xmlns="http://www.w3.org/2000/svg">
<g filter="url(#filter0_dd_3040_2385)">
<path d="M21.4622 9.52005C23.262 9.52005 24.7222 8.06115 24.7222 6.26003C24.7222 4.4589 23.262 3 21.4622 3C19.6623 3 18.2021 4.4589 18.2021 6.26003C18.2021 8.06115 19.6623 9.52005 21.4622 9.52005Z" fill="#023F86"/>
<path d="M25.9489 16.3664L28.4814 25.822H30.9264L28.9554 14.6375C28.65 12.9175 27.3698 11.4485 25.5636 10.9998C24.2504 10.6728 22.8765 10.4966 21.4632 10.4966C20.0499 10.4966 18.676 10.6728 17.3628 10.9998C15.5566 11.4485 14.2752 12.9175 13.971 14.6375L12 25.822H14.445L16.9775 16.3664L17.9966 20.1677C15.6568 23.647 14.2904 27.8348 14.2904 32.3433H18.5403L19.823 47.0046H23.1034L24.3848 32.3433H28.636C28.636 27.8348 27.2709 23.6457 24.9298 20.1664L25.9489 16.3664Z" fill="#023F86"/>
</g>
<defs>
<filter id="filter0_dd_3040_2385" x="0.367663" y="0.673532" width="42.1914" height="67.2691" filterUnits="userSpaceOnUse" color-interpolation-filters="sRGB">
<feFlood flood-opacity="0" result="BackgroundImageFix"/>
<feColorMatrix in="SourceAlpha" type="matrix" values="0 0 0 0 0 0 0 0 0 0 0 0 0 0 0 0 0 0 127 0" result="hardAlpha"/>
<feMorphology radius="6.9794" operator="erode" in="SourceAlpha" result="effect1_dropShadow_3040_2385"/>
<feOffset dy="9.30587"/>
<feGaussianBlur stdDeviation="9.30587"/>
<feColorMatrix type="matrix" values="0 0 0 0 0.0745098 0 0 0 0 0.0980392 0 0 0 0 0.152941 0 0 0 0.08 0"/>
<feBlend mode="normal" in2="BackgroundImageFix" result="effect1_dropShadow_3040_2385"/>
<feColorMatrix in="SourceAlpha" type="matrix" values="0 0 0 0 0 0 0 0 0 0 0 0 0 0 0 0 0 0 127 0" result="hardAlpha"/>
<feMorphology radius="6.9794" operator="erode" in="SourceAlpha" result="effect2_dropShadow_3040_2385"/>
<feOffset dy="6.9794"/>
<feGaussianBlur stdDeviation="4.65293"/>
<feColorMatrix type="matrix" values="0 0 0 0 0.0745098 0 0 0 0 0.0980392 0 0 0 0 0.152941 0 0 0 0.12 0"/>
<feBlend mode="normal" in2="effect1_dropShadow_3040_2385" result="effect2_dropShadow_3040_2385"/>
<feBlend mode="normal" in="SourceGraphic" in2="effect2_dropShadow_3040_2385" result="shape"/>
</filter>
</defs>
</svg>
